<?xml version="1.0" standalone="no"?>
<!DOCTYPE svg PUBLIC "-//W3C//DTD SVG 20010904//EN"
 "http://www.w3.org/TR/2001/REC-SVG-20010904/DTD/svg10.dtd">
<svg version="1.0" xmlns="http://www.w3.org/2000/svg"
 width="1920.000000pt" height="1277.000000pt" viewBox="0 0 1920.000000 1277.000000"
 preserveAspectRatio="xMidYMid meet">
<metadata>
Created by potrace 1.16, written by Peter Selinger 2001-2019
</metadata>
<g transform="translate(0.000000,1277.000000) scale(0.100000,-0.100000)"
fill="#000000" stroke="none">
<path d="M0 10660 c0 -1634 3 -2110 12 -2110 9 0 9 -3 0 -12 -7 -7 -12 -25
-12 -41 0 -25 2 -28 15 -17 12 10 15 10 15 -4 0 -9 -7 -16 -15 -16 -8 0 -15
-5 -15 -11 0 -7 11 -8 30 -4 19 4 30 3 30 -4 0 -6 -13 -11 -29 -11 -25 0 -28
-3 -27 -30 1 -17 7 -30 14 -30 6 0 12 -6 12 -12 0 -10 3 -9 9 1 7 10 13 11 31
1 12 -6 24 -9 27 -6 3 3 -2 8 -11 12 -9 3 -13 10 -10 15 8 14 54 -21 54 -42 0
-11 5 -19 10 -19 20 0 9 31 -21 59 -19 18 -37 27 -46 24 -11 -4 -14 -2 -9 5 9
15 43 16 52 1 3 -6 15 -8 26 -6 16 5 19 2 15 -15 -8 -28 9 -9 18 21 4 13 3 21
-2 18 -5 -3 -15 -1 -23 4 -13 8 -13 10 0 19 12 8 10 10 -9 8 -13 -2 -26 3 -28
10 -7 19 21 14 51 -9 15 -11 33 -18 41 -15 19 7 19 -4 -1 -33 -16 -22 -16 -23
6 -16 19 6 22 4 17 -9 -7 -18 4 -21 19 -6 5 5 25 11 44 12 19 2 38 7 42 12 4
6 12 5 21 -3 10 -8 17 -9 22 -1 3 5 -1 10 -9 10 -19 0 -21 11 -4 28 9 9 9 12
1 12 -7 0 -18 -9 -26 -21 -11 -15 -17 -17 -23 -8 -4 7 -3 14 4 17 6 2 8 10 5
19 -5 12 -3 14 8 8 7 -5 20 -10 29 -11 45 -7 55 -12 55 -30 0 -10 -4 -25 -9
-31 -6 -9 -3 -13 8 -13 9 0 16 5 16 10 0 6 11 8 28 4 25 -7 26 -6 12 11 -14
17 -13 18 3 12 10 -4 20 -7 22 -7 2 0 1 -10 -3 -22 -5 -20 -4 -21 11 -9 12 10
14 18 7 31 -7 13 -7 21 0 25 6 4 7 11 4 17 -5 7 -1 9 9 5 22 -8 47 2 47 19 0
8 5 14 11 14 5 0 7 -5 4 -11 -4 -6 1 -17 11 -24 23 -17 38 -19 28 -4 -4 8 0 9
15 4 12 -4 21 -2 21 4 0 14 37 14 45 1 14 -22 25 -8 23 29 -2 29 -7 37 -18 33
-13 -5 -13 -4 -1 12 15 18 22 18 106 2 17 -4 24 -3 18 0 -7 3 -13 13 -13 21 0
13 3 13 16 2 13 -10 17 -10 25 2 5 8 9 17 9 22 0 4 5 7 11 7 5 0 9 -8 7 -18
-2 -11 3 -26 11 -36 18 -21 7 -33 -14 -16 -12 10 -19 10 -27 2 -7 -7 -21 -12
-33 -12 -12 0 -26 -5 -32 -11 -8 -8 -14 -5 -23 11 -11 20 -10 21 12 15 18 -5
20 -4 8 4 -24 17 -46 13 -47 -9 -1 -11 2 -22 6 -25 5 -2 7 -16 6 -30 -2 -16 2
-25 11 -25 8 0 13 3 13 8 -3 20 2 33 14 29 6 -2 17 3 24 12 9 13 14 14 24 4
18 -18 29 -16 30 5 1 9 4 4 8 -12 3 -16 12 -31 20 -34 10 -3 12 1 8 17 -3 14
1 24 11 31 10 5 13 10 8 10 -5 0 -3 7 4 15 10 12 9 15 -6 15 -16 0 -16 2 -4 9
19 13 27 6 35 -29 6 -26 9 -28 26 -20 13 8 25 7 39 -2 18 -11 23 -10 31 5 6 9
21 17 34 17 16 0 25 6 25 16 0 9 5 12 12 8 8 -5 9 -2 5 10 -4 10 -1 19 9 23
22 8 27 -2 12 -27 -10 -18 -10 -24 0 -27 6 -3 12 -16 12 -29 0 -16 4 -23 11
-18 6 3 9 17 6 30 -2 13 0 24 4 24 5 0 9 -5 9 -11 0 -6 7 -8 16 -5 12 4 15 2
11 -9 -4 -8 -2 -17 3 -20 13 -8 40 5 40 20 0 19 -48 47 -69 40 -16 -5 -19 0
-19 30 0 19 4 35 9 35 5 0 9 -9 9 -19 0 -11 5 -23 10 -26 6 -3 10 -1 10 4 0 6
4 11 10 11 5 0 7 -7 4 -15 -9 -23 12 -18 29 8 8 12 18 19 22 15 4 -4 1 -18 -7
-30 -13 -19 -13 -25 -2 -35 10 -10 14 -10 17 0 3 7 6 5 6 -5 1 -9 -6 -24 -15
-32 -8 -9 -11 -16 -5 -16 5 0 16 9 23 19 10 14 18 17 28 11 18 -11 51 16 44
35 -4 9 2 11 21 8 20 -4 23 -8 14 -19 -9 -11 -8 -18 1 -29 10 -12 10 -15 -3
-15 -19 0 -57 -47 -56 -69 0 -12 2 -13 6 -2 9 23 37 51 50 51 15 0 55 21 64
34 9 11 32 -31 24 -44 -3 -6 -1 -10 5 -10 7 0 9 12 4 35 -5 28 -3 35 10 35 12
0 15 8 12 40 -2 22 0 40 6 40 5 0 9 -12 8 -27 -4 -50 -1 -57 14 -44 19 16 28
-1 20 -35 -5 -19 -4 -25 5 -20 6 4 11 14 11 22 0 8 4 14 9 14 5 0 7 9 4 20 -3
11 0 20 6 20 6 0 11 7 11 15 0 8 5 15 11 15 6 0 9 -7 6 -15 -8 -19 13 -31 24
-14 7 11 12 12 29 2 11 -7 22 -13 25 -13 10 0 5 28 -7 32 -6 2 -8 10 -4 16 10
17 26 15 20 -3 -8 -19 5 -19 31 1 17 13 18 16 5 24 -13 8 -12 10 3 10 24 0 21
-24 -9 -59 -24 -29 -21 -44 4 -19 9 9 12 8 12 -5 0 -12 -8 -17 -29 -17 -17 0
-33 -4 -36 -10 -7 -11 27 -13 75 -4 21 5 35 15 42 33 9 21 12 23 15 9 3 -10
13 -18 24 -18 10 0 19 -7 19 -15 0 -17 18 -19 40 -6 20 13 34 2 19 -15 -9 -11
-8 -14 4 -14 8 0 20 7 28 16 10 13 10 17 -2 25 -10 6 -11 9 -1 9 7 0 11 4 8 9
-4 5 -1 11 6 13 9 3 8 9 -4 21 -23 23 -30 21 -24 -5 3 -13 3 -17 0 -10 -9 18
-25 15 -22 -5 2 -13 -5 -19 -24 -21 -16 -2 -28 2 -28 8 0 13 25 40 37 40 4 0
14 9 21 20 9 15 9 20 0 20 -6 0 -9 2 -6 5 9 9 38 -7 38 -21 0 -8 7 -14 15 -14
8 0 15 -4 15 -10 0 -5 7 -7 15 -4 9 4 15 0 15 -10 0 -9 -6 -16 -14 -16 -19 0
-29 -30 -15 -46 6 -8 8 -14 4 -14 -5 0 2 -9 15 -20 30 -26 36 -25 16 3 -27 36
-30 49 -15 58 8 5 23 6 34 3 16 -4 17 -3 5 5 -13 9 -13 11 3 11 24 0 22 21 -3
27 -11 3 -20 9 -20 14 0 5 11 7 25 3 19 -5 25 -2 25 10 0 12 10 16 43 15 23 0
36 -3 29 -6 -20 -8 -14 -21 16 -35 16 -9 26 -20 24 -31 -2 -12 3 -16 19 -14
12 1 24 -4 26 -10 3 -7 -2 -13 -11 -13 -9 0 -16 -4 -16 -10 0 -15 14 -12 36 8
10 10 27 21 37 25 13 5 17 1 18 -21 1 -27 1 -27 11 5 19 57 -12 84 -49 44 -12
-13 -23 -17 -32 -12 -10 7 -9 9 3 14 9 4 16 13 16 22 0 8 5 15 11 15 5 0 8 4
5 9 -3 5 1 11 9 15 8 3 17 1 20 -4 4 -6 1 -10 -5 -10 -6 0 -9 -4 -5 -10 3 -5
12 -7 20 -3 8 3 15 0 15 -6 0 -6 7 -11 15 -11 18 0 20 -26 4 -36 -8 -5 -6 -10
5 -16 13 -7 16 -17 11 -39 -4 -18 -3 -29 4 -29 6 0 11 7 11 16 0 9 6 14 13 11
20 -7 48 18 41 37 -3 9 -10 16 -15 16 -5 0 -9 7 -9 15 0 14 3 14 30 0 16 -8
38 -15 50 -15 17 0 19 -2 8 -14 -7 -8 -14 -10 -16 -5 -2 5 -11 9 -19 9 -12 0
-13 -3 -4 -14 9 -10 8 -15 -4 -20 -8 -3 -15 -10 -15 -16 0 -7 8 -5 21 4 12 8
28 12 35 9 9 -3 14 1 14 12 0 22 23 14 35 -13 10 -23 25 -30 25 -11 0 6 9 8
20 4 11 -4 20 -2 20 4 0 6 9 11 20 11 11 0 20 7 20 15 0 8 4 15 10 15 5 0 7
-6 4 -14 -7 -18 43 -50 64 -40 9 4 21 6 26 5 22 -5 54 10 59 29 4 15 0 20 -16
20 -17 0 -19 2 -8 9 18 11 22 53 7 64 -8 6 -7 10 2 14 6 2 12 15 12 28 0 13 5
27 11 31 8 4 9 0 4 -15 -5 -16 -3 -20 9 -15 11 4 16 0 16 -14 0 -12 5 -24 10
-27 6 -3 10 -1 10 5 0 6 4 9 8 6 5 -3 21 4 38 15 39 26 57 25 49 -3 -6 -17 -4
-20 10 -15 9 4 18 7 21 7 2 0 1 8 -2 18 -5 16 -5 16 9 -1 12 -15 15 -15 20 -3
4 9 2 18 -3 21 -7 4 -7 13 0 24 5 10 7 21 4 23 -3 3 4 8 16 11 14 4 20 0 20
-11 0 -14 2 -15 9 -2 6 8 7 18 5 22 -3 4 10 8 28 7 26 0 29 -2 14 -8 -13 -5
-16 -10 -8 -15 6 -4 23 1 37 10 14 9 34 14 46 11 20 -5 20 -5 4 13 -18 20 -13
40 10 40 7 0 18 12 23 28 8 26 9 26 16 5 4 -12 21 -26 38 -32 39 -14 34 -15
58 11 11 12 20 19 20 15 0 -4 13 -1 30 8 16 8 33 16 37 16 5 0 15 6 23 13 17
15 80 19 80 6 0 -5 -6 -11 -12 -13 -9 -4 -7 -6 3 -6 20 -1 79 28 79 39 0 14
61 2 81 -16 20 -18 43 -10 35 12 -3 7 -1 16 5 19 14 9 1 25 -16 18 -18 -6 -20
8 -3 25 9 9 8 12 -4 12 -9 0 -20 -5 -23 -10 -5 -8 -11 -8 -20 0 -9 8 -14 7
-18 -4 -4 -10 -1 -13 9 -9 8 3 14 -1 14 -10 0 -19 -44 -17 -63 2 -7 7 -7 11
-2 9 6 -2 11 2 11 7 3 20 -8 35 -25 35 -14 0 -14 -2 -1 -10 13 -8 13 -10 -2
-10 -9 0 -19 6 -21 13 -3 7 -6 5 -6 -5 -1 -10 -5 -18 -11 -18 -5 0 -13 0 -17
0 -5 0 -8 6 -8 13 0 6 -9 11 -20 10 -11 -1 -14 0 -7 3 6 3 12 12 12 20 0 17
-31 19 -48 2 -9 -9 -12 -8 -12 4 0 9 -13 21 -30 27 -24 8 -30 7 -30 -5 0 -17
-16 -19 -26 -3 -3 6 -16 9 -29 7 -17 -4 -24 2 -33 24 -5 15 -6 26 -1 22 5 -3
9 0 9 6 0 6 6 10 13 9 24 -3 37 1 37 12 0 6 -9 8 -20 4 -14 -4 -20 -2 -20 9 0
8 -4 17 -9 20 -5 4 -7 -3 -4 -14 3 -11 0 -20 -6 -20 -6 0 -11 5 -11 10 0 18
-20 11 -20 -7 -1 -14 -4 -12 -14 7 -15 27 -13 41 7 36 7 -1 9 -1 5 1 -4 3 -10
19 -13 36 -8 39 -43 60 -68 42 -15 -11 -14 -13 7 -25 14 -7 30 -9 38 -4 11 7
11 5 0 -9 -8 -9 -11 -20 -8 -25 3 -6 -1 -15 -9 -22 -8 -7 -15 -21 -15 -31 0
-10 -9 -24 -20 -31 -11 -7 -20 -23 -20 -35 0 -27 -12 -29 -31 -6 -10 11 -10
14 -1 9 7 -4 12 -2 12 8 0 8 6 19 13 23 20 13 48 84 41 105 -6 19 -6 19 -20 1
-13 -17 -13 -17 -14 4 0 31 -14 36 -35 13 -10 -11 -22 -20 -28 -20 -5 0 -22
-9 -38 -21 -28 -20 -31 -20 -49 -4 -11 10 -20 12 -24 6 -8 -13 -37 -3 -54 18
-11 13 -14 14 -21 2 -7 -11 -10 -10 -14 5 -4 16 -5 17 -6 2 -1 -22 -17 -23
-37 -3 -9 9 -11 15 -4 15 6 0 9 4 6 9 -3 5 -27 7 -53 6 -68 -4 -68 -4 -55 -17
7 -7 12 -25 12 -40 0 -15 4 -28 9 -28 11 0 24 -31 16 -38 -9 -9 -34 32 -35 56
0 14 -4 21 -11 17 -6 -4 -13 2 -16 14 -3 12 -12 21 -19 21 -14 0 -19 17 -15
57 1 12 -3 24 -9 28 -15 9 -12 19 11 33 19 12 20 11 16 -18 l-5 -30 29 21 c16
11 29 29 29 40 0 10 5 19 10 19 6 0 10 -6 10 -14 0 -7 6 -18 13 -24 13 -11 13
-5 16 115 0 17 6 37 13 45 11 11 16 69 8 88 -9 21 -4 60 8 60 8 0 12 -6 9 -15
-4 -8 -2 -17 4 -20 5 -4 7 -11 4 -16 -4 -5 -2 -9 4 -9 14 0 24 19 31 60 4 26
11 36 28 38 12 2 22 7 22 12 0 5 7 7 16 3 14 -5 15 -1 9 25 -4 21 -3 32 4 32
6 0 11 11 11 25 0 16 -6 25 -16 25 -10 0 -14 5 -10 15 3 8 9 22 12 30 4 11 0
15 -15 15 -14 0 -21 6 -21 20 0 11 -9 29 -19 39 -16 16 -17 22 -7 37 7 9 18
14 24 10 7 -4 12 -3 12 2 0 5 11 14 25 20 28 13 65 -2 65 -25 0 -17 17 -25 39
-18 13 4 18 14 17 34 -1 15 4 33 11 40 8 7 13 8 13 1 0 -5 5 -10 10 -10 18 0
11 18 -10 25 -11 3 -23 17 -26 31 -7 27 -34 33 -34 8 0 -9 -6 -14 -12 -12 -7
3 -13 18 -13 34 0 27 3 29 32 26 28 -3 32 0 35 24 l3 26 25 -22 c14 -12 19
-19 13 -15 -16 8 -16 -3 1 -33 10 -20 14 -21 24 -9 17 20 88 18 138 -3 30 -13
44 -27 52 -49 6 -17 16 -31 21 -31 6 0 11 -6 11 -14 0 -7 9 -16 20 -19 15 -4
20 0 20 14 0 23 68 58 113 59 20 0 27 5 27 19 0 13 11 23 36 31 38 13 39 13
18 94 -5 22 -3 25 10 20 11 -4 27 3 43 17 20 18 25 20 20 7 -7 -21 1 -22 24
-5 12 9 16 23 13 46 -3 25 -1 32 10 28 8 -3 22 0 32 7 33 24 82 -7 75 -47 -1
-5 4 -7 11 -5 7 3 15 13 17 24 2 10 10 24 19 30 8 6 12 16 8 23 -7 11 7 20 41
25 20 3 20 5 9 60 -7 31 -6 40 7 48 9 4 23 15 31 24 9 8 20 12 26 9 5 -3 10
-2 10 4 0 5 -4 13 -10 16 -6 3 -10 18 -10 32 0 18 4 24 14 20 22 -9 94 25 100
46 6 25 26 21 26 -5 1 -31 28 -90 29 -64 1 19 1 19 15 1 13 -18 13 -18 24 0 8
16 13 17 26 6 11 -10 16 -10 16 -2 0 11 41 9 94 -6 16 -4 18 -1 12 21 -5 20
-3 26 9 26 9 0 18 -7 21 -15 4 -8 10 -15 16 -15 5 0 17 -7 26 -16 14 -15 14
-18 -9 -35 -18 -13 -24 -28 -24 -56 0 -30 -5 -40 -22 -48 -13 -5 -23 -15 -23
-22 0 -6 -3 -19 -6 -28 -5 -11 0 -18 14 -22 19 -4 20 -7 7 -20 -9 -8 -13 -18
-10 -23 3 -5 1 -11 -5 -15 -5 -3 -10 3 -10 14 0 27 -16 35 -26 13 -12 -26 -15
-74 -5 -67 5 3 13 0 16 -6 4 -5 13 -8 21 -5 8 3 14 1 14 -4 0 -6 -3 -10 -7
-10 -5 0 -9 -32 -9 -72 -2 -62 0 -70 12 -54 9 13 19 16 31 11 10 -5 22 -7 26
-6 4 1 3 -7 -2 -18 -9 -15 -7 -20 12 -26 12 -4 30 -6 40 -5 9 1 17 -5 17 -14
0 -10 6 -13 15 -10 9 4 15 0 15 -9 0 -31 29 -26 56 11 15 20 31 39 35 42 4 3
11 18 14 33 9 36 25 35 25 -3 0 -28 2 -30 30 -25 16 3 30 1 30 -4 0 -12 -27
-22 -44 -15 -22 8 -30 -16 -10 -30 17 -13 17 -15 1 -47 -9 -19 -17 -28 -17
-21 0 6 -7 12 -16 12 -12 0 -14 -5 -9 -17 4 -10 9 -27 10 -38 5 -60 39 -78 59
-32 l14 32 1 -31 c1 -19 7 -34 16 -38 8 -3 15 -12 15 -21 0 -8 9 -15 20 -15
17 0 20 -7 20 -39 0 -48 16 -61 32 -27 12 28 33 34 41 14 2 -7 8 -10 12 -6 10
10 15 59 6 53 -5 -2 -17 3 -27 11 -14 11 -15 17 -7 20 16 7 17 45 2 77 -15 33
7 78 42 87 24 7 25 5 25 -34 -1 -41 -1 -41 32 -38 30 3 33 1 27 -17 -4 -15 -1
-23 12 -28 16 -6 15 -8 -7 -14 -22 -6 -20 -7 12 -8 20 -1 40 -6 44 -12 4 -7
14 1 26 20 11 17 27 32 36 33 32 2 37 4 50 11 7 5 12 4 12 -2 0 -20 39 -11 45
9 8 26 -17 54 -34 37 -8 -8 -11 -5 -11 11 0 24 -7 27 -30 13 -30 -20 -28 1 3
29 21 20 25 28 13 23 -13 -4 -17 -3 -12 5 4 7 3 12 -3 12 -5 0 -11 -10 -13
-22 -3 -23 -28 -38 -28 -16 1 16 64 88 79 88 6 0 11 -8 12 -17 0 -11 3 -13 6
-5 6 14 33 16 33 2 0 -5 -4 -10 -10 -10 -5 0 -10 -8 -10 -17 1 -17 1 -17 14 0
18 23 67 19 81 -7 15 -28 39 -40 61 -31 11 4 26 7 36 6 9 -1 19 3 23 9 3 5 26
10 51 10 41 0 44 -2 45 -27 0 -16 3 -22 6 -15 2 6 9 12 15 12 6 0 7 -7 4 -16
-4 -12 -2 -15 9 -10 9 3 15 0 15 -8 0 -8 19 -18 41 -24 34 -9 46 -8 66 5 20
13 26 14 33 3 5 -8 17 -10 35 -6 22 6 26 4 22 -8 -10 -25 7 -19 18 6 14 32 54
48 124 52 68 3 86 -4 79 -30 -4 -15 1 -19 20 -21 13 0 28 -7 33 -14 6 -10 13
-11 31 -2 37 18 100 30 146 27 23 -1 42 2 42 6 0 4 16 8 34 8 19 0 49 7 67 16
31 15 34 15 53 -3 12 -10 33 -21 48 -25 26 -6 26 -6 24 47 -3 41 1 55 15 65
11 7 19 19 19 27 0 8 17 17 42 22 29 6 42 14 44 27 3 22 21 36 46 36 9 0 24 3
33 7 15 5 16 1 10 -27 -5 -24 -4 -31 4 -25 17 10 53 -1 81 -25 13 -11 36 -20
52 -20 15 0 28 -4 28 -10 0 -5 15 -17 33 -26 43 -22 44 -23 27 -35 -11 -8 -9
-9 9 -4 21 6 23 5 16 -11 -27 -69 -28 -124 -2 -124 7 0 23 19 37 43 32 54 35
61 21 53 -6 -4 -11 -2 -11 3 0 7 19 9 48 7 71 -5 83 -13 79 -52 -2 -19 -7 -37
-10 -41 -4 -3 -7 -17 -7 -30 0 -16 6 -23 20 -23 11 0 20 7 20 15 0 24 29 32
81 24 28 -4 58 -5 67 -1 16 6 16 4 0 -20 l-18 -27 33 22 c29 19 46 57 25 57
-4 0 -5 7 -1 15 3 9 13 15 22 13 9 -2 34 16 57 39 45 48 50 50 75 27 16 -14
20 -13 56 9 21 13 54 27 73 30 76 13 100 20 100 28 0 5 -5 9 -10 9 -6 0 -9 5
-8 12 2 6 -9 18 -25 25 -24 12 -29 12 -43 -1 -9 -9 -11 -16 -4 -16 6 0 8 -5 5
-10 -10 -15 -27 0 -21 17 7 18 -10 43 -30 43 -8 0 -14 -9 -14 -20 0 -11 4 -20
9 -20 5 0 11 -7 15 -15 3 -8 1 -15 -4 -15 -5 0 -15 7 -24 15 -19 19 -35 19
-42 0 -4 -10 -12 -12 -22 -7 -19 9 -32 9 -47 1 -5 -3 -16 -4 -22 -3 -7 1 -17
2 -21 3 -14 2 -52 38 -52 49 0 10 23 22 41 22 5 0 9 -8 9 -18 0 -11 7 -18 20
-18 18 0 18 2 5 23 -15 22 -15 23 17 23 40 0 50 6 74 45 16 26 25 30 64 31 25
1 63 10 85 19 22 10 50 17 62 16 14 -1 23 5 28 18 6 21 25 29 25 11 0 -5 9
-10 20 -10 11 0 20 4 20 9 0 5 10 9 23 10 66 2 114 8 124 14 6 4 16 0 23 -8 8
-9 21 -13 31 -10 12 4 21 1 25 -9 3 -9 12 -16 19 -16 7 0 27 -8 43 -17 26 -15
29 -21 24 -58 -4 -39 -2 -43 22 -47 14 -3 23 -1 20 3 -3 5 -1 9 5 9 15 0 23
-18 10 -25 -5 -4 -8 -14 -5 -22 4 -9 -1 -17 -14 -20 -39 -10 -19 -19 41 -18
66 1 95 21 85 57 -7 29 31 68 68 68 17 0 42 7 55 16 19 14 25 14 32 3 6 -10 9
-10 9 -2 0 18 61 41 96 36 23 -4 36 1 55 21 24 26 59 35 59 16 0 -5 -5 -10
-12 -10 -8 0 -6 -6 4 -17 14 -13 20 -14 32 -3 9 7 16 23 16 37 0 21 3 22 20
13 15 -8 20 -8 18 1 -2 6 3 14 11 17 8 3 11 0 7 -7 -4 -6 -2 -11 4 -11 6 0 10
8 8 17 -5 26 82 75 142 81 33 3 50 1 50 -6 0 -10 9 -9 50 5 8 3 30 6 48 6 36
0 86 -38 78 -59 -3 -7 0 -15 7 -18 7 -4 0 -4 -15 -2 -33 4 -39 -19 -8 -29 11
-3 20 -12 20 -20 0 -8 8 -16 19 -20 22 -7 53 4 46 15 -3 5 -1 11 4 15 6 3 8
12 5 20 -9 23 48 0 66 -27 8 -11 25 -33 38 -49 19 -23 21 -32 12 -49 -14 -27
-26 -18 -34 25 -4 19 -11 35 -16 35 -6 0 -6 -10 0 -26 9 -22 8 -25 -6 -20 -8
3 -22 6 -30 6 -8 0 -14 6 -14 13 0 6 -4 18 -9 26 -7 11 -14 10 -39 -5 -26 -15
-33 -15 -47 -4 -8 7 -18 11 -20 8 -3 -3 6 -11 20 -18 17 -9 25 -22 25 -41 0
-31 -40 -85 -70 -94 -40 -13 -19 -95 28 -114 32 -13 56 -56 50 -87 -1 -11 1
-20 5 -22 12 -5 57 34 57 49 1 22 28 52 40 44 6 -4 23 6 39 24 15 17 35 31 43
31 9 0 18 10 22 23 8 32 51 55 76 39 14 -9 19 -8 24 3 4 10 21 15 55 15 27 0
52 4 55 8 3 5 20 9 37 10 21 0 43 11 63 30 29 28 32 29 54 15 12 -9 22 -22 22
-31 0 -14 27 -41 42 -42 4 0 10 9 13 21 5 14 13 19 25 16 10 -2 23 4 31 14 7
11 19 19 26 19 7 0 20 11 29 25 9 14 21 25 26 25 12 0 105 -93 131 -130 19
-28 37 -18 19 10 -7 11 -12 28 -12 39 0 15 -5 18 -22 13 -22 -5 -22 -5 2 25
15 18 33 29 45 28 29 -3 29 -4 16 -19 -10 -12 -8 -13 9 -9 11 3 23 9 26 14 15
24 74 1 87 -34 6 -17 9 -17 38 -2 29 15 32 15 45 -2 7 -10 14 -22 14 -27 0
-13 91 0 130 20 19 10 49 18 67 18 23 1 32 5 28 14 -3 8 0 10 7 6 7 -4 23 -9
36 -10 13 -2 34 -10 48 -18 20 -14 23 -22 19 -64 -2 -26 -4 -50 -5 -54 0 -3
-15 -10 -32 -14 -32 -7 -32 -7 -9 -16 34 -12 91 0 92 21 1 9 1 37 -1 62 l-2
46 41 0 c43 0 49 -5 29 -25 -9 -9 -8 -12 6 -12 10 0 20 9 23 19 3 12 17 21 38
25 18 4 35 12 38 19 7 18 -3 69 -16 85 -8 10 -7 16 4 22 10 7 8 9 -9 7 -12 0
-22 -5 -22 -10 0 -4 -4 -6 -9 -3 -14 9 -10 56 5 56 7 0 14 10 16 23 3 23 33
29 71 12 12 -5 17 -3 17 9 0 9 12 18 28 22 15 3 33 8 40 10 8 2 24 -4 37 -14
23 -18 81 -22 78 -6 -1 5 6 19 15 31 13 16 30 22 72 25 49 3 55 1 55 -16 0
-11 6 -21 14 -24 10 -3 12 6 6 45 -6 46 -5 51 14 56 29 7 37 5 33 -10 -2 -7 2
-13 8 -13 5 0 10 5 10 11 0 5 4 7 10 4 6 -4 8 10 4 39 -6 44 -6 45 30 60 20 8
36 22 36 31 0 21 24 45 44 45 9 0 16 6 16 14 0 23 21 24 45 2 17 -15 34 -19
69 -17 42 2 47 0 57 -26 6 -15 19 -37 29 -48 10 -11 23 -32 29 -47 9 -23 8
-28 -5 -28 -34 0 -5 -26 39 -34 26 -5 47 -13 47 -17 0 -4 10 -5 23 -2 20 4 20
3 5 -9 -15 -13 -14 -18 10 -63 28 -52 45 -60 50 -25 3 19 22 29 22 11 0 -5 13
-11 30 -14 37 -8 100 -48 100 -64 0 -7 9 -13 19 -13 11 0 22 -8 25 -18 4 -10
16 -29 27 -41 12 -12 22 -33 24 -47 3 -27 25 -58 25 -36 0 19 48 14 59 -5 9
-17 10 -17 29 0 16 15 27 16 60 9 28 -7 42 -6 45 1 5 17 67 -31 79 -62 10 -25
10 -26 20 -5 8 18 13 20 33 10 19 -9 23 -17 21 -49 -2 -28 2 -40 15 -48 24
-13 69 -58 69 -69 0 -5 20 -12 45 -16 25 -3 48 -10 51 -15 10 -17 34 -9 34 11
0 11 6 20 13 20 26 0 40 -19 43 -61 3 -23 9 -48 15 -55 7 -8 6 -13 -2 -16 -8
-3 -9 -9 -2 -23 6 -11 15 -33 20 -50 4 -16 13 -29 18 -29 6 1 19 -5 30 -12 11
-8 22 -14 26 -14 10 0 -2 94 -12 98 -13 5 -11 32 2 32 6 0 9 7 5 15 -7 18 3
19 26 1 10 -7 14 -17 10 -21 -4 -5 0 -6 9 -2 13 4 18 -2 23 -24 9 -48 46 -32
46 21 0 9 7 24 16 31 14 11 18 11 28 -2 15 -21 47 -9 70 26 15 23 16 29 5 36
-8 5 -17 9 -21 9 -17 0 -7 28 12 33 11 3 18 1 14 -4 -3 -5 -2 -9 3 -9 4 0 14
14 22 31 9 20 18 28 28 24 9 -3 21 -1 27 3 17 14 66 21 72 11 3 -5 -2 -9 -11
-9 -8 0 -18 -7 -21 -15 -4 -8 -18 -15 -32 -15 -24 0 -25 -1 -11 -16 21 -20 76
-9 58 12 -9 11 -8 14 4 14 8 0 23 3 32 6 12 5 16 2 13 -12 -3 -16 3 -19 37
-18 22 1 43 -3 46 -8 10 -15 31 1 25 18 -4 10 3 14 24 14 17 0 30 4 30 10 0 5
7 7 16 3 9 -3 14 -13 11 -25 -6 -23 37 -48 83 -48 38 0 58 -10 104 -54 38 -35
46 -56 22 -56 -8 0 -16 -6 -18 -12 -7 -20 2 -38 19 -38 10 0 12 -6 8 -20 -5
-17 -2 -20 25 -20 23 0 33 -6 40 -25 10 -25 43 -34 55 -15 4 6 12 7 18 3 7 -4
23 -9 37 -10 14 -1 19 0 13 3 -16 7 -17 31 -2 36 17 6 113 -15 120 -25 9 -13
29 1 24 16 -6 17 15 46 21 30 3 -7 13 -10 22 -7 9 3 6 -1 -7 -9 l-23 -14 22
-6 c12 -3 19 -10 16 -16 -4 -6 8 -14 26 -19 43 -12 46 -7 17 18 -21 19 -22 21
-4 16 11 -3 40 -8 63 -11 41 -6 43 -5 37 14 -4 12 -2 21 4 21 6 0 8 7 5 15 -4
8 -3 15 0 15 4 0 11 -12 16 -26 6 -14 14 -22 20 -19 6 3 14 -4 19 -17 5 -13
16 -30 25 -37 23 -19 20 -41 -5 -41 -17 0 -20 -5 -16 -21 3 -12 1 -33 -4 -47
-13 -35 3 -50 28 -25 12 12 36 20 63 21 25 2 60 7 78 13 27 9 37 8 52 -6 10
-9 24 -14 29 -10 18 11 101 15 101 5 0 -5 -18 -15 -40 -21 -22 -7 -40 -16 -40
-21 0 -5 12 -20 26 -33 15 -14 23 -25 18 -25 -5 0 -15 -4 -23 -9 -12 -8 -12
-12 2 -26 12 -12 17 -13 17 -3 0 10 3 9 10 -2 13 -21 -4 -34 -28 -21 -27 14
-35 14 -26 -1 6 -10 5 -10 -8 0 -9 7 -13 22 -10 37 2 15 0 25 -7 25 -6 0 -11
7 -11 15 0 8 -4 15 -9 15 -5 0 -11 -7 -15 -15 -3 -8 -12 -15 -21 -15 -8 0 -15
-4 -15 -10 0 -17 -36 -11 -54 9 -21 23 -53 17 -51 -10 1 -10 4 -22 8 -25 4 -4
7 -15 7 -25 0 -14 10 -19 48 -21 33 -2 46 -7 44 -16 -2 -9 4 -11 18 -7 32 10
79 -16 85 -47 5 -19 16 -31 40 -39 18 -7 36 -21 38 -31 6 -21 37 -25 37 -4 0
24 19 29 44 13 15 -10 28 -12 37 -6 8 5 24 9 37 9 26 0 25 -2 11 39 -10 27
-24 36 -51 32 -5 0 -8 12 -8 29 0 23 -7 33 -31 45 -17 9 -38 14 -46 11 -12 -5
-14 -1 -10 15 4 15 2 19 -9 15 -8 -3 -12 -2 -9 3 3 5 1 12 -5 16 -18 11 -11
27 10 20 14 -4 20 -2 20 8 0 9 6 18 13 20 8 4 8 8 2 14 -5 4 -11 18 -13 31 -3
18 2 22 22 22 14 0 28 -4 31 -10 3 -5 -1 -10 -9 -10 -20 0 -20 -9 0 -32 15
-15 18 -16 28 -3 10 13 22 11 89 -17 l78 -31 29 21 c17 13 36 19 45 15 10 -3
20 0 25 7 6 9 12 9 29 1 18 -10 21 -9 21 10 0 15 4 19 16 15 9 -3 20 -6 25 -6
5 0 7 -10 5 -23 -3 -19 3 -27 30 -42 19 -10 34 -25 34 -33 0 -10 8 -13 25 -10
26 5 35 -6 13 -16 -8 -3 1 -16 24 -36 21 -18 35 -36 32 -41 -3 -5 6 -5 20 1
23 8 26 7 26 -11 0 -11 -4 -17 -10 -14 -5 3 -10 -1 -10 -10 0 -9 8 -19 19 -22
13 -3 17 -11 14 -24 -3 -10 -9 -16 -14 -13 -14 8 -11 -2 12 -41 18 -30 20 -40
10 -58 -6 -12 -13 -32 -16 -45 -6 -35 -12 -39 -47 -37 -33 3 -91 -23 -83 -36
3 -4 -4 -9 -15 -12 -11 -3 -20 -1 -20 4 0 5 -9 4 -19 -3 -11 -7 -17 -16 -15
-20 3 -4 -5 -8 -18 -8 -16 0 -19 -3 -10 -9 11 -7 10 -9 -3 -14 -9 -4 -13 -3
-10 2 3 5 1 12 -4 16 -6 3 -15 -4 -21 -15 -7 -14 -20 -20 -38 -19 -48 3 -142
-21 -142 -37 0 -8 -4 -14 -10 -14 -5 0 -10 5 -10 10 0 12 -49 3 -65 -11 -5 -5
-24 -9 -42 -9 -34 0 -83 -25 -83 -41 0 -5 -10 -19 -21 -30 -17 -17 -19 -23 -8
-30 9 -5 -1 -7 -24 -4 -24 3 -36 1 -32 -5 3 -5 2 -10 -4 -10 -5 0 -14 7 -19
16 -6 11 -11 13 -16 5 -4 -6 -22 -11 -39 -12 -31 -1 -31 -1 -7 -9 l25 -8 -27
-1 c-16 -1 -28 -6 -28 -12 0 -6 10 -9 23 -7 13 2 29 -5 39 -17 15 -17 17 -18
18 -3 0 9 -5 20 -10 23 -13 8 -13 28 1 23 6 -2 10 -7 10 -11 0 -3 6 -22 14
-41 22 -52 20 -69 -7 -60 -13 3 -25 11 -26 16 -2 5 -10 4 -18 -3 -11 -9 -14
-6 -14 19 0 17 6 33 13 35 6 3 0 6 -14 6 -15 1 -29 -6 -33 -14 -6 -15 -36 -10
-36 7 0 5 5 6 12 2 7 -4 8 -3 4 5 -4 7 -15 11 -24 9 -10 -1 -21 0 -27 4 -6 3
-10 -4 -10 -17 0 -12 5 -21 11 -18 15 6 41 -27 28 -35 -15 -10 -25 -42 -14
-42 6 0 10 4 10 8 0 11 56 43 63 35 4 -3 2 -14 -4 -24 -8 -15 -6 -19 6 -19 28
0 44 -22 32 -47 -6 -13 -14 -23 -19 -23 -5 0 -6 -5 -2 -11 4 -8 0 -9 -15 -4
-14 4 -23 1 -27 -9 -3 -9 -17 -16 -31 -16 -25 0 -57 23 -46 34 4 3 -5 6 -20 6
-14 0 -33 3 -43 7 -12 4 -15 3 -10 -5 4 -7 2 -12 -3 -12 -6 0 -11 9 -11 20 0
11 -4 20 -9 20 -5 0 -8 -24 -6 -52 l4 -53 -25 29 c-14 15 -28 25 -32 21 -4 -4
-1 -10 6 -12 6 -3 12 -16 12 -30 0 -18 -4 -24 -15 -20 -18 7 -27 -6 -19 -27 3
-8 21 -16 42 -18 21 -2 37 -9 39 -18 4 -13 3 -13 -6 0 -10 13 -15 8 -12 -12 0
-5 -9 -8 -20 -8 -21 0 -59 -34 -59 -52 0 -4 10 -8 23 -8 23 0 62 -20 40 -20
-7 0 -13 -4 -13 -10 0 -5 9 -10 19 -10 10 0 22 -7 25 -16 8 -22 8 -26 -4 -19
-6 3 -7 -1 -4 -9 8 -22 21 -20 27 4 7 26 23 26 30 1 4 -16 -2 -21 -24 -26 -31
-7 -38 -22 -14 -31 23 -9 40 -44 22 -44 -8 0 -17 10 -20 21 -4 15 -11 20 -22
15 -27 -10 -37 4 -21 29 14 22 14 24 -10 40 l-26 17 6 -31 c3 -17 9 -44 12
-61 5 -29 13 -35 43 -31 7 2 10 -2 7 -8 -4 -5 -2 -12 4 -16 6 -4 7 -11 4 -17
-4 -6 -10 -5 -15 3 -6 9 -9 10 -9 2 0 -6 7 -18 15 -26 8 -8 11 -17 8 -21 -4
-3 -1 -6 5 -6 6 0 14 9 17 20 4 11 11 18 16 15 5 -4 6 -14 1 -23 -12 -27 -8
-57 8 -57 9 0 14 7 12 18 -2 10 3 17 14 17 11 0 14 5 10 16 -3 9 -6 18 -6 20
0 3 -5 2 -11 -2 -7 -4 -10 -1 -7 6 8 26 23 20 34 -15 9 -27 8 -35 -1 -35 -7 0
-15 -9 -18 -20 -6 -22 -25 -25 -76 -10 -40 11 -49 7 -31 -15 11 -13 8 -15 -16
-15 -22 0 -25 3 -14 10 8 5 11 13 6 17 -5 4 -11 2 -13 -4 -3 -7 -11 -13 -19
-13 -9 0 -13 4 -9 9 3 5 1 12 -5 16 -5 3 -10 -1 -10 -10 0 -9 9 -19 20 -22 26
-7 20 -29 -6 -25 -16 2 -16 0 5 -16 20 -16 22 -22 12 -40 -8 -15 -8 -23 0 -27
6 -4 13 2 16 14 6 25 43 29 43 5 0 -14 -3 -14 -15 -4 -13 11 -15 8 -15 -20 0
-28 -2 -31 -15 -20 -13 10 -15 9 -15 -9 0 -11 4 -21 9 -21 5 0 11 -10 13 -22
2 -13 9 -22 16 -20 8 1 11 -8 10 -25 -2 -16 2 -29 7 -31 6 -2 13 -12 17 -22 5
-12 13 -17 23 -14 9 4 17 -1 22 -11 6 -17 7 -17 20 1 17 23 17 35 -1 28 -8 -3
-17 -1 -21 5 -11 19 37 12 51 -6 10 -14 15 -15 25 -6 10 10 9 17 -6 33 -18 20
-18 20 11 19 16 -1 40 -5 54 -10 25 -9 25 -9 -2 -5 -24 3 -28 0 -28 -20 0 -15
-6 -24 -15 -24 -9 0 -15 -9 -15 -25 0 -29 7 -31 38 -9 20 14 22 14 22 0 0 -9
-12 -19 -26 -22 -33 -8 -13 -23 22 -16 19 3 23 9 19 23 -4 12 -1 19 7 19 10 0
10 2 1 8 -7 4 -11 18 -10 30 2 27 17 30 17 3 0 -18 2 -19 30 -5 30 15 42 54
18 54 -8 1 -5 7 6 15 10 8 22 12 27 10 4 -3 5 5 1 17 -4 17 -2 20 11 15 10 -4
17 -2 17 3 0 19 53 60 82 64 3 1 10 4 14 9 4 4 21 7 39 7 35 0 55 15 55 42 0
14 5 17 24 12 18 -4 28 0 40 17 22 32 21 34 -19 59 -40 25 -44 36 -14 45 12 4
18 12 15 21 -3 8 -1 14 4 14 21 0 9 20 -12 21 -17 0 -19 2 -8 7 37 17 23 111
-22 152 -24 22 -27 31 -19 51 5 14 16 31 25 38 12 10 13 16 3 32 -14 22 -33
25 -40 7 -4 -10 -6 -10 -6 0 -1 7 11 17 27 23 15 6 22 13 15 16 -7 2 -9 11 -7
18 9 21 -6 40 -18 24 -7 -10 -8 -6 -3 11 15 57 -3 100 -42 100 -7 0 -13 -6
-13 -12 0 -7 -6 -2 -13 12 -14 26 -12 50 4 50 5 0 9 -9 9 -19 0 -24 40 -35 77
-20 16 6 22 13 16 16 -18 7 -16 23 2 23 8 0 15 5 15 10 0 6 11 10 25 10 16 0
25 -6 25 -16 0 -14 3 -14 15 -4 26 21 11 51 -28 55 -30 4 -47 13 -47 26 0 14
52 10 80 -6 14 -8 35 -14 47 -15 12 0 28 -9 35 -19 8 -10 25 -21 38 -23 24 -3
31 -22 10 -24 -5 -1 -12 -3 -15 -4 -3 -1 -11 -3 -17 -4 -7 0 -14 -15 -16 -33
-3 -27 0 -31 16 -27 10 3 24 -2 31 -10 8 -9 20 -16 27 -16 8 0 14 -10 14 -25
0 -13 8 -29 17 -34 10 -6 12 -11 6 -11 -18 0 -16 -29 2 -36 8 -4 15 -13 15
-20 0 -8 8 -18 18 -21 9 -4 24 -16 33 -27 17 -21 17 -21 38 4 17 21 18 27 6
36 -9 6 -13 26 -12 52 1 40 2 41 23 27 16 -10 24 -11 33 -2 10 9 16 8 27 -7
12 -17 17 -18 39 -8 32 15 75 15 112 1 24 -9 30 -7 45 11 24 29 23 39 -4 49
-20 8 -21 10 -5 16 9 4 17 13 17 21 0 29 44 13 86 -31 41 -45 74 -58 74 -30 0
8 -4 15 -10 15 -5 0 -7 7 -4 15 4 8 10 15 16 15 5 0 7 -4 3 -9 -3 -5 0 -13 6
-16 6 -4 13 2 16 14 3 12 11 21 18 21 13 0 65 -44 65 -56 0 -3 11 -15 24 -25
42 -33 39 -143 -5 -181 -25 -21 -24 -63 2 -89 l20 -20 36 31 c31 28 37 30 52
17 9 -8 22 -12 29 -10 6 3 12 -2 12 -10 0 -9 10 -17 22 -19 27 -4 39 -44 33
-109 -5 -47 -4 -47 34 -62 27 -11 41 -24 45 -42 5 -18 12 -25 22 -21 16 6 58
-10 92 -36 16 -11 33 -15 53 -11 23 4 29 2 29 -12 0 -10 13 -32 29 -51 16 -18
34 -40 39 -50 8 -14 13 -14 32 -4 12 7 35 9 51 6 31 -6 39 7 14 22 -13 7 -12
10 7 19 13 6 32 14 43 18 13 5 15 9 8 12 -7 3 -13 9 -13 14 0 14 28 11 33 -3
3 -10 9 -10 25 -1 17 10 20 10 16 -1 -3 -8 3 -16 15 -19 24 -6 28 -27 6 -27
-8 0 -15 -7 -15 -15 0 -13 4 -14 20 -5 11 6 20 15 20 20 0 6 5 10 10 10 6 0
10 -7 10 -15 0 -8 9 -19 20 -25 24 -13 26 -30 4 -30 -8 0 -12 -5 -8 -11 3 -6
17 -9 31 -6 29 5 83 -13 83 -28 0 -6 14 -21 30 -33 17 -13 30 -31 30 -41 0
-10 6 -19 13 -18 36 1 49 -4 44 -17 -3 -8 2 -16 12 -19 18 -4 36 -61 25 -78
-3 -5 3 -9 13 -9 12 0 19 8 20 20 1 11 -3 20 -8 20 -6 0 -9 5 -7 12 5 14 38
20 38 7 0 -5 5 -9 10 -9 6 0 3 11 -5 24 -9 13 -15 28 -14 32 3 20 -2 35 -19
52 -22 22 -19 77 5 86 12 5 14 1 9 -19 -4 -14 -2 -25 4 -25 5 0 10 4 10 8 0 4
13 12 28 18 35 13 72 -1 72 -28 0 -13 9 -20 30 -24 17 -4 30 -10 30 -15 0 -5
6 -9 14 -9 8 0 16 -9 18 -21 2 -13 21 -31 48 -46 25 -14 54 -33 65 -44 17 -17
18 -22 6 -40 -11 -19 -10 -24 13 -45 14 -14 31 -21 40 -18 11 4 16 0 16 -11 0
-9 -5 -13 -11 -10 -5 4 -22 -6 -36 -21 -24 -27 -26 -27 -39 -9 -8 10 -17 16
-20 12 -4 -4 -1 -13 5 -21 9 -10 9 -16 1 -21 -13 -8 -25 1 -25 17 0 18 -64 18
-75 -1 -6 -9 -10 -11 -10 -3 0 6 -9 12 -20 12 -12 0 -20 7 -20 16 0 11 -5 14
-16 10 -8 -3 -24 -1 -35 4 -23 13 -25 4 -4 -17 12 -12 13 -18 4 -29 -11 -13
-6 -18 14 -15 5 1 11 -8 14 -19 3 -11 9 -17 14 -14 15 9 10 -13 -6 -26 -8 -6
-19 -9 -25 -5 -6 4 -10 3 -9 -2 4 -24 -2 -53 -12 -53 -5 0 -7 5 -4 10 3 6 1
10 -5 10 -8 0 -10 -10 -6 -27 3 -16 3 -22 0 -15 -3 6 -14 12 -25 12 -10 0 -19
6 -19 13 0 6 -7 20 -14 30 -12 16 -14 14 -13 -15 1 -18 7 -39 15 -47 7 -7 10
-22 7 -32 -4 -11 -2 -19 4 -19 6 0 11 -7 11 -15 0 -8 6 -15 14 -15 8 0 17 -6
20 -12 3 -9 9 -7 20 6 16 20 20 16 17 -16 -2 -12 3 -16 13 -12 9 3 16 1 16 -6
0 -6 5 -8 10 -5 6 3 10 0 10 -7 0 -10 2 -10 8 -1 4 6 21 11 37 11 17 -1 40 2
52 6 13 4 32 1 45 -7 13 -7 34 -13 48 -12 35 3 69 -21 63 -45 -3 -11 -10 -20
-16 -20 -7 0 -6 -5 2 -12 10 -11 14 -9 23 5 7 14 17 17 35 12 20 -5 24 -3 19
12 -6 21 9 51 21 40 4 -5 1 -12 -7 -17 -12 -8 -11 -10 7 -10 29 0 53 -10 53
-22 0 -6 -12 -8 -30 -5 -27 6 -30 3 -39 -26 -7 -24 -9 -26 -10 -10 -2 42 -21
35 -21 -8 0 -34 -3 -40 -12 -31 -17 17 -29 15 -26 -5 5 -32 29 -42 50 -21 10
10 18 23 18 29 0 7 10 4 26 -6 14 -9 35 -14 46 -12 16 5 17 3 7 -9 -13 -16 -6
-30 10 -19 13 7 15 95 3 95 -5 0 -18 -9 -30 -21 -20 -18 -24 -18 -37 -5 -23
23 -18 33 17 34 17 0 34 4 37 9 3 4 13 9 21 10 12 2 15 -9 14 -60 -2 -80 -11
-110 -33 -102 -11 4 -13 3 -5 -5 16 -16 41 -2 48 26 7 28 21 31 35 7 10 -17
10 -17 11 0 0 10 8 17 19 17 11 0 23 5 26 10 3 6 10 10 16 10 10 0 7 -49 -4
-67 -7 -11 1 -23 15 -23 5 0 6 4 3 10 -3 6 -1 10 6 10 17 0 1 71 -19 87 -14
10 -8 11 36 6 31 -3 52 -2 52 4 0 5 11 15 25 21 22 10 24 9 22 -10 -1 -15 5
-24 23 -29 16 -4 19 -7 8 -8 -19 -1 -26 -21 -8 -21 6 0 10 -4 10 -10 0 -5 -11
-10 -24 -10 -13 0 -26 -6 -29 -14 -4 -11 3 -14 29 -13 27 2 34 6 34 23 0 20
17 44 31 44 4 0 6 -15 5 -32 -1 -24 -8 -36 -26 -45 -19 -9 -21 -12 -7 -13 11
0 15 -5 11 -11 -3 -6 -15 -9 -25 -6 -11 3 -19 0 -19 -7 0 -6 14 -13 32 -14 18
-2 35 -7 39 -13 4 -8 9 -8 14 1 4 6 0 17 -10 23 -10 8 -14 19 -9 30 8 21 22
22 46 0 11 -9 18 -11 18 -5 0 7 10 13 23 13 20 1 20 2 2 6 -33 8 -42 23 -12
23 14 0 31 8 37 18 9 15 10 14 5 -5 -6 -23 2 -28 45 -25 8 0 26 -8 41 -19 15
-10 34 -19 42 -19 9 0 19 -5 22 -11 13 -19 -4 -22 -31 -4 -16 11 -30 13 -36 7
-6 -6 4 -16 27 -26 36 -18 37 -17 53 5 32 44 33 45 39 32 7 -18 23 -16 23 1 0
8 5 18 12 22 7 4 8 3 4 -5 -4 -6 -2 -19 6 -28 11 -14 11 -16 -3 -11 -9 4 -20
-2 -28 -14 -8 -13 -18 -17 -34 -13 -12 4 -17 3 -11 -2 6 -4 14 -18 18 -31 4
-12 12 -20 17 -17 5 4 9 1 9 -4 0 -6 4 -11 10 -11 5 0 7 14 4 33 -3 18 -2 27
3 21 16 -21 46 -25 64 -8 19 17 18 17 -1 31 -26 18 -26 39 0 46 19 5 25 -6 21
-40 -1 -7 2 -13 8 -13 5 0 16 -3 25 -6 11 -4 16 -1 16 10 0 9 5 16 11 16 6 0
8 -9 4 -21 -4 -13 -3 -19 2 -16 6 4 19 0 29 -8 17 -13 18 -14 2 -15 -10 0 -18
-4 -18 -10 0 -13 17 -13 25 1 5 7 14 4 26 -7 27 -24 33 -12 8 15 -18 19 -19
25 -8 32 8 5 19 9 24 9 6 0 3 -4 -5 -10 -24 -15 -8 -19 40 -10 36 7 46 5 56
-8 7 -10 16 -13 20 -9 5 4 2 12 -6 17 -8 6 -10 10 -5 10 19 0 32 -15 39 -43 5
-23 2 -29 -19 -39 -14 -6 -25 -15 -25 -19 0 -13 18 -20 25 -9 3 5 18 7 34 4
24 -5 31 -1 49 30 12 20 26 36 32 36 6 0 3 -11 -6 -25 -18 -28 -15 -60 6 -60
9 0 16 11 18 28 2 18 9 27 22 27 10 0 20 4 22 8 2 5 17 3 33 -5 30 -14 30 -14
3 -8 -16 3 -28 1 -28 -5 0 -5 7 -10 15 -10 17 0 20 -38 4 -60 -8 -12 -9 -9 -5
12 6 28 -6 44 -24 33 -8 -5 -7 -11 1 -21 8 -9 8 -14 1 -14 -6 0 -16 8 -21 18
-13 22 -14 1 -1 -33 5 -14 14 -24 19 -20 16 9 24 -15 11 -30 -10 -12 -9 -15 3
-15 8 0 17 6 20 13 3 9 8 9 21 -2 9 -8 20 -11 24 -7 4 4 -2 14 -13 22 -19 14
-19 16 -2 25 9 6 15 14 12 18 -2 5 4 11 15 14 13 3 20 0 20 -9 0 -8 9 -14 23
-13 12 0 17 3 10 5 -7 3 -9 12 -6 20 3 9 -2 14 -16 14 -12 0 -21 5 -21 10 0
16 37 12 54 -6 9 -8 16 -25 16 -36 0 -17 -5 -20 -35 -16 -28 3 -35 1 -35 -14
0 -9 6 -16 13 -14 6 3 25 7 41 11 26 5 28 4 17 -9 -11 -13 -11 -16 3 -16 10 0
14 -4 11 -10 -3 -5 -18 -10 -33 -10 -26 -1 -26 -1 7 -15 28 -13 31 -17 21 -30
-8 -9 -9 -15 -2 -15 18 0 24 20 12 35 -9 11 -9 15 -1 15 8 0 9 13 5 40 -7 41
4 52 24 27 6 -7 7 -18 2 -26 -5 -9 -3 -22 3 -33 18 -28 26 -22 22 19 -2 20 0
31 4 25 6 -9 15 -10 39 -1 18 6 39 8 47 5 16 -6 21 -46 5 -46 -5 0 -7 7 -4 15
5 11 -1 15 -22 15 -27 -1 -28 -2 -10 -15 10 -7 15 -19 11 -25 -4 -7 4 -9 27
-5 20 3 28 2 20 -3 -9 -6 -11 -18 -6 -35 4 -17 2 -27 -5 -27 -6 0 -11 7 -11
15 0 8 -4 15 -10 15 -12 0 -13 -10 -1 -28 6 -10 21 -12 55 -7 39 6 46 11 46
30 0 26 14 40 50 48 23 6 26 12 28 59 1 33 -2 55 -10 60 -10 6 -10 8 -1 8 10
0 13 642 13 3095 l0 3095 -9600 0 -9600 0 0 -2110z m1962 1716 c3 3 43 -2 88
-12 77 -15 84 -15 92 0 6 11 14 14 25 8 18 -11 63 -3 63 10 0 5 12 1 28 -10
15 -11 35 -18 45 -17 9 2 15 0 13 -4 -8 -12 42 -63 54 -56 6 4 24 -8 40 -25
17 -19 36 -30 44 -27 9 4 16 -1 18 -13 2 -15 7 -17 18 -10 12 8 13 12 2 19
-11 7 -11 9 2 14 19 7 29 -7 22 -31 -3 -9 -1 -24 4 -32 5 -8 10 -10 10 -3 0 8
13 7 47 -3 34 -10 49 -11 60 -3 10 9 17 8 29 -2 13 -10 17 -10 24 1 7 11 11
10 25 -4 10 -10 25 -14 36 -11 11 4 19 2 19 -4 0 -6 9 -11 20 -11 11 0 20 -4
20 -10 0 -5 5 -10 10 -10 6 0 10 7 10 15 0 8 5 15 11 15 6 0 8 -9 4 -21 -6
-18 -4 -20 14 -14 15 5 21 2 21 -10 0 -12 6 -14 28 -9 36 9 43 14 37 25 -4 5
5 4 19 -3 26 -11 35 -28 16 -28 -5 0 -13 -12 -17 -27 l-6 -28 -13 30 c-8 18
-13 23 -14 13 0 -10 -9 -27 -21 -39 -12 -12 -19 -29 -16 -39 4 -15 -2 -20 -25
-26 -17 -3 -33 -2 -37 3 -3 5 -16 8 -28 7 -13 -1 -23 2 -23 6 0 4 -10 10 -22
14 -15 4 -19 9 -12 13 7 5 10 19 9 33 -4 36 -5 38 -15 13 -5 -13 -17 -23 -25
-23 -9 0 -13 -4 -10 -10 3 -6 -1 -7 -9 -4 -9 3 -13 10 -10 15 3 5 0 9 -5 9 -6
0 -11 9 -11 20 0 11 -4 20 -10 20 -5 0 -10 -7 -10 -15 0 -17 -45 -21 -55 -5
-3 6 -17 10 -30 10 -13 0 -25 5 -27 12 -7 21 -41 0 -35 -22 3 -11 1 -20 -4
-20 -5 0 -9 7 -9 15 0 10 -10 15 -28 15 -16 0 -32 3 -35 6 -11 11 -87 10 -91
-1 -3 -5 -5 1 -5 15 -1 19 -4 21 -10 11 -5 -8 -7 -20 -4 -28 6 -16 -9 -17 -25
-1 -9 9 -12 9 -12 -2 0 -13 -2 -13 -10 0 -6 10 -10 11 -10 3 0 -7 -6 -13 -14
-13 -13 0 -15 40 -5 75 2 6 -2 20 -9 33 -11 20 -10 22 8 22 11 0 20 5 20 11 0
11 -38 3 -54 -11 -10 -10 -52 4 -73 25 -20 21 -38 14 -37 -14 0 -11 -4 -21
-10 -20 -34 4 -52 -4 -63 -26 -9 -20 -8 -25 3 -25 8 0 14 -7 14 -15 0 -9 9
-19 21 -23 21 -8 20 -9 -6 -26 -21 -14 -29 -15 -35 -6 -4 7 -16 9 -29 5 -12
-3 -19 -11 -16 -16 8 -12 -12 -11 -37 2 -16 8 -22 8 -29 -2 -7 -11 -11 -10
-22 4 -12 18 -14 17 -26 -6 -9 -17 -19 -23 -32 -20 -27 7 -24 42 5 53 29 11
43 30 22 30 -18 0 -56 35 -56 51 0 6 9 8 20 4 15 -5 18 -3 14 9 -3 9 -1 16 5
16 6 0 11 9 11 20 0 11 6 20 13 20 8 0 19 18 26 40 8 28 16 38 26 34 12 -5 15
2 15 31 0 30 3 35 13 26 8 -6 16 -8 19 -5z m11824 -1376 c1 -8 2 -25 3 -37 1
-25 21 -32 21 -8 0 8 6 16 13 16 6 1 24 3 40 5 15 1 27 -1 27 -6 0 -5 10 -12
23 -16 12 -3 30 -13 40 -22 15 -14 17 -14 17 0 0 9 9 18 20 21 11 3 20 1 20
-4 0 -5 12 -4 27 2 18 7 28 6 33 -1 4 -6 28 -8 63 -5 59 6 117 -13 117 -37 0
-8 3 -9 11 -1 11 11 59 5 59 -8 0 -13 64 -11 77 2 7 7 19 1 42 -21 17 -17 35
-29 40 -26 5 3 11 -1 15 -9 3 -8 11 -15 17 -15 6 0 20 -10 30 -22 11 -11 19
-19 19 -15 0 3 29 -24 65 -59 36 -36 65 -62 65 -58 0 3 14 -8 31 -25 17 -17
35 -31 40 -31 5 0 9 -7 9 -15 0 -8 5 -15 11 -15 5 0 8 -4 4 -9 -3 -5 5 -11 17
-13 19 -2 22 -8 20 -32 -2 -16 2 -33 9 -37 10 -6 10 -11 0 -23 -11 -13 -9 -17
15 -28 59 -25 97 -93 54 -93 -8 0 -19 -6 -25 -12 -5 -7 -29 -15 -53 -18 -24
-3 -53 -14 -64 -25 -12 -11 -24 -17 -28 -15 -3 2 -14 -9 -24 -26 -14 -24 -15
-29 -2 -29 8 0 17 -6 20 -12 3 -7 4 -4 1 8 -7 29 31 49 68 35 30 -12 39 -51
11 -51 -14 0 -14 3 -4 15 10 13 6 12 -18 -2 -18 -10 -32 -21 -32 -25 0 -12
-38 -10 -61 3 -14 7 -18 16 -14 29 5 15 -2 24 -30 37 -29 14 -38 15 -44 4 -7
-10 -13 -10 -29 -2 -17 9 -21 8 -25 -7 -4 -14 -5 -13 -6 4 -1 20 -51 77 -51
58 0 -5 -4 -3 -9 5 -8 13 -12 13 -26 1 -15 -12 -19 -11 -33 7 -22 28 -82 41
-82 19 0 -9 -4 -16 -9 -16 -6 0 -6 12 -1 30 8 27 -3 55 -12 30 -6 -19 -75 -24
-93 -7 -12 12 -22 14 -40 7 -16 -6 -27 -6 -31 1 -3 6 -12 8 -20 5 -7 -3 -22 6
-33 20 -18 23 -20 23 -29 7 -10 -17 -13 -16 -58 6 -33 15 -50 19 -52 11 -3 -7
-10 -6 -23 6 -26 23 -24 37 4 29 12 -3 17 -3 11 2 -6 4 -19 23 -28 41 -18 35
-31 39 -56 17 -14 -13 -19 -13 -36 0 -12 9 -14 14 -6 15 11 0 10 3 -1 15 -11
11 -23 12 -46 5 -29 -8 -31 -7 -31 16 0 14 -4 23 -9 20 -5 -4 -11 -2 -13 4 -5
16 -78 20 -127 8 -25 -6 -40 -13 -33 -16 15 -5 6 -22 -12 -22 -14 0 -25 37
-18 58 2 8 10 7 28 -4 25 -17 28 -12 14 21 -5 11 -9 14 -9 7 -1 -21 -21 -3
-21 19 0 11 -4 17 -10 14 -5 -3 -10 -2 -10 4 0 5 5 11 11 13 9 3 9 9 1 23 -6
11 -13 28 -16 38 -7 21 -26 23 -26 2 0 -13 -4 -12 -22 5 -24 22 -38 26 -38 10
0 -5 -8 -10 -17 -10 -11 0 -14 3 -7 8 9 6 10 26 5 75 -2 15 -30 6 -34 -10 -3
-12 -5 -9 -6 8 -1 33 -30 62 -32 33 -1 -14 -3 -12 -8 6 -4 15 -15 26 -29 28
-12 2 -22 10 -22 18 0 9 5 12 12 8 8 -5 9 -2 5 9 -3 10 -2 17 3 17 6 0 10 -6
10 -13 0 -18 34 -49 43 -40 4 3 7 2 7 -4 0 -5 15 -9 34 -9 24 1 31 4 25 12
-10 12 3 26 33 37 12 4 15 2 12 -8 -4 -10 0 -12 17 -8 15 4 27 -1 39 -18 l18
-23 35 19 c20 10 33 23 30 28 -3 4 5 11 16 14 16 4 20 11 16 24 -6 17 0 18 67
16 56 -1 73 -5 74 -17z m3281 -275 c7 -8 26 -16 42 -20 34 -7 47 -20 56 -57 5
-21 3 -27 -14 -33 -24 -7 -27 -18 -8 -33 6 -6 21 -33 32 -61 16 -41 24 -51 43
-51 22 0 54 -26 92 -73 13 -17 12 -19 -5 -17 -38 4 -42 0 -44 -50 -1 -49 -1
-50 28 -50 17 0 33 5 36 10 3 6 15 10 26 10 14 0 19 -7 19 -25 0 -14 4 -25 8
-25 17 0 21 13 10 34 -10 21 -10 21 9 1 21 -23 28 -66 10 -64 -26 3 -37 -2
-37 -16 0 -8 -4 -15 -10 -15 -5 0 -10 -5 -10 -10 0 -7 6 -7 19 -1 15 8 24 5
44 -13 14 -13 28 -22 31 -19 2 3 13 0 23 -6 17 -10 17 -11 -4 -17 -33 -9 -28
-35 15 -75 34 -33 97 -69 120 -69 5 0 22 -19 38 -42 34 -50 73 -87 93 -88 9 0
12 -8 8 -26 -3 -17 -1 -24 7 -21 18 7 39 -30 24 -39 -8 -5 -5 -10 8 -15 18 -7
18 -8 -1 -8 -16 -1 -17 -3 -6 -10 12 -7 12 -13 3 -24 -7 -7 -9 -16 -6 -19 3
-3 -10 -15 -28 -25 -28 -17 -44 -19 -100 -14 -38 4 -68 3 -68 -1 0 -5 7 -8 15
-8 8 0 15 -4 15 -9 0 -6 -11 -6 -29 0 -21 7 -36 7 -50 -1 -24 -12 -29 -25 -7
-17 10 4 14 -1 13 -14 -1 -15 -13 -23 -44 -32 -44 -12 -63 -34 -38 -44 12 -4
13 -9 4 -19 -9 -11 -7 -14 10 -14 11 0 20 6 18 13 -1 7 7 11 21 10 12 -2 22 3
22 10 1 28 80 95 80 67 0 -6 3 -9 8 -7 4 1 18 -8 32 -20 13 -13 27 -23 32 -23
15 0 8 -26 -12 -40 -23 -17 -10 -40 24 -40 20 -1 20 -2 4 -14 -10 -7 -18 -26
-18 -41 0 -20 -4 -26 -15 -21 -8 3 -15 1 -15 -4 0 -6 7 -10 15 -10 8 0 15 -4
15 -10 0 -13 -10 -12 -40 5 -30 17 -40 18 -40 6 0 -5 9 -13 20 -16 30 -10 15
-23 -25 -23 -26 0 -41 7 -58 28 -13 15 -34 33 -46 39 -21 12 -22 11 -18 -18 4
-22 2 -28 -9 -24 -8 3 -11 9 -8 14 3 5 -5 13 -18 18 l-23 10 25 1 c21 1 18 4
-15 15 -22 7 -34 13 -27 14 25 2 2 19 -35 26 -21 4 -42 10 -48 13 -5 4 -17 7
-25 9 -8 1 -20 9 -26 17 -6 9 -16 16 -23 16 -13 0 -71 56 -71 69 0 35 -86 75
-114 52 -9 -8 -21 -8 -37 -2 -13 5 -20 10 -15 10 4 1 0 13 -9 28 -16 24 -16
27 -1 38 24 18 19 28 -6 14 -21 -11 -22 -11 -10 4 10 12 11 20 2 34 -10 16
-10 15 -5 -4 6 -20 3 -22 -24 -19 -17 2 -29 -1 -28 -6 1 -6 -7 -15 -18 -21
-11 -7 -23 -16 -26 -21 -4 -4 -10 -3 -13 3 -4 6 -13 8 -19 4 -7 -4 -23 -9 -37
-11 -14 -2 -26 -7 -28 -13 -2 -5 -12 -9 -22 -9 -10 0 -21 -6 -24 -12 -3 -7 -3
-3 0 10 4 17 1 22 -13 22 -23 1 -86 57 -78 70 3 6 -3 10 -14 10 -12 0 -21 5
-21 10 0 17 -63 40 -76 29 -8 -6 -28 -4 -55 5 -69 22 -109 29 -109 17 0 -5
-18 -9 -40 -9 -26 0 -40 5 -40 14 0 7 -16 16 -35 20 -19 3 -47 15 -60 26 -18
14 -41 20 -80 20 -30 1 -55 5 -55 9 0 5 -5 9 -11 9 -5 0 -7 -5 -3 -12 5 -7 2
-9 -9 -5 -11 4 -14 2 -10 -9 3 -7 4 -14 2 -15 -70 -13 -137 -1 -77 14 18 5 19
9 9 21 -10 12 -16 13 -32 3 -16 -10 -21 -9 -29 3 -5 8 -7 17 -5 20 2 3 6 29
10 58 6 54 0 61 -35 42 -15 -8 -18 -6 -16 15 0 14 4 25 8 25 3 0 4 9 1 20 -3
11 -14 20 -24 20 -11 0 -19 5 -19 10 0 6 -6 10 -13 10 -7 0 -17 8 -24 19 -6
10 -25 21 -42 24 -17 4 -31 11 -31 17 0 6 5 8 12 4 8 -5 9 0 6 14 -7 25 9 39
25 23 6 -6 19 -11 29 -11 10 0 18 -7 18 -15 0 -9 9 -15 25 -15 15 0 25 -6 25
-14 0 -10 13 -14 49 -13 l49 2 -5 43 c-3 33 -1 42 11 42 12 0 14 9 10 40 -5
38 -3 40 38 61 24 12 46 26 50 32 11 17 67 -13 84 -44 12 -24 87 -71 104 -66
3 1 20 -8 38 -21 l32 -23 0 26 c0 17 4 24 12 19 8 -5 9 -2 5 9 -8 21 20 22 46
2 11 -7 25 -11 33 -8 8 3 14 0 14 -6 0 -6 11 -11 24 -11 14 0 28 -5 31 -11 5
-7 12 -3 21 9 18 26 62 33 103 16 18 -8 41 -14 51 -14 11 0 27 -17 40 -42 12
-24 28 -47 36 -51 8 -4 14 -17 14 -27 0 -11 5 -20 10 -20 6 0 10 -7 10 -15 0
-8 8 -15 18 -15 10 0 23 -5 30 -12 6 -6 40 -13 74 -15 56 -3 66 0 91 23 15 14
43 28 62 31 19 3 35 9 35 13 0 8 38 21 70 26 8 1 20 3 25 4 6 1 15 1 20 0 38
-10 84 -3 95 14 11 17 9 18 -9 13 -25 -6 -26 -3 -7 16 31 30 23 51 -29 77 -27
14 -53 29 -56 34 -4 5 -12 6 -18 2 -6 -4 -19 -2 -30 4 -16 8 -22 6 -30 -7 -6
-10 -11 -13 -11 -6 0 7 -9 10 -20 8 -12 -2 -23 1 -26 8 -6 16 -108 15 -128 -2
-10 -8 -16 -9 -16 -3 0 12 -39 27 -48 18 -3 -3 3 -13 14 -21 13 -11 14 -14 4
-13 -9 2 -14 -4 -14 -14 2 -24 -18 -23 -39 2 -11 14 -29 20 -55 20 -21 0 -42
3 -46 7 -4 4 -15 8 -24 8 -9 0 -17 5 -17 10 -2 28 -18 53 -41 63 -30 14 -45
15 -24 2 8 -5 11 -12 7 -16 -4 -4 -13 -2 -19 4 -7 7 -22 12 -35 12 -13 0 -23
4 -23 9 0 5 -6 11 -14 14 -15 6 -16 -9 -3 -30 6 -9 1 -13 -17 -13 -14 0 -26 5
-26 11 0 5 4 8 9 5 5 -4 4 7 -2 23 -7 19 -16 27 -25 23 -10 -3 -13 -1 -8 6 4
7 2 12 -5 12 -6 0 -1 9 12 21 13 11 18 18 12 14 -9 -4 -11 2 -6 25 4 23 1 35
-13 49 -11 10 -25 16 -32 13 -11 -3 -11 0 -1 16 15 24 53 32 87 18 24 -10 29
-22 10 -28 -8 -3 -4 -9 10 -17 16 -9 22 -21 22 -46 0 -35 0 -35 45 -35 33 0
43 3 39 13 -3 8 2 19 10 26 17 14 66 4 66 -14 0 -19 40 -61 48 -49 12 16 61
34 77 28 8 -4 15 -14 15 -23 0 -27 13 -38 51 -45 35 -6 36 -5 31 19 -3 16 -11
25 -22 25 -29 0 -50 11 -50 26 0 8 -10 14 -24 14 -19 0 -23 4 -19 20 6 24 -23
90 -39 90 -7 0 -3 7 8 15 18 14 18 14 -8 15 -18 0 -28 5 -28 15 0 12 17 15 90
15 73 0 90 3 90 15 0 8 17 23 38 34 39 22 85 20 109 -4z m-3127 -542 c0 -5 -7
-16 -15 -26 -7 -11 -11 -26 -8 -34 4 -9 0 -13 -8 -12 -21 5 -59 -23 -59 -43 0
-12 -8 -18 -24 -18 -14 0 -28 -5 -31 -10 -5 -8 -11 -8 -20 0 -17 14 -65 2 -65
-16 0 -24 -19 -15 -35 16 -17 34 -27 39 -23 13 2 -13 -3 -17 -17 -15 -11 1
-31 3 -45 5 -17 2 -25 9 -25 22 0 14 -8 20 -29 22 -16 1 -35 4 -43 7 -21 9 -6
25 17 19 12 -3 20 0 20 7 0 6 6 10 13 7 6 -2 37 9 67 25 34 17 58 24 64 18 6
-6 16 -5 29 2 17 9 19 8 14 -6 -4 -10 -3 -15 3 -11 6 4 19 -4 30 -17 13 -15
19 -18 20 -9 0 8 3 12 6 8 3 -3 15 2 25 12 11 10 29 16 42 14 12 -2 31 3 42
11 21 16 55 21 55 9z m1019 -110 c45 -14 51 -19 51 -43 0 -20 6 -29 21 -33 12
-3 18 -10 15 -15 -3 -5 15 -17 41 -25 30 -10 50 -12 54 -6 8 13 89 -31 89 -48
0 -9 -8 -11 -24 -7 -25 6 -44 -10 -26 -21 6 -4 15 -18 20 -31 12 -29 33 -30
71 -3 34 24 38 58 9 66 -34 9 -16 28 23 25 21 -1 37 2 37 8 0 5 14 10 30 10
33 0 36 -6 16 -33 -9 -11 -17 -14 -21 -8 -4 7 -10 7 -19 -1 -13 -12 -15 -20
-19 -63 -2 -23 -9 -30 -30 -26 -5 1 -6 -3 -2 -9 3 -6 11 -7 17 -4 6 4 6 -2 -1
-15 -7 -11 -19 -21 -27 -21 -9 0 -14 -6 -11 -12 2 -7 12 -12 21 -12 22 2 20
-18 -6 -46 -13 -14 -23 -19 -26 -12 -2 7 -13 12 -24 12 -12 0 -26 6 -32 14
-14 17 -62 33 -52 17 4 -6 0 -11 -8 -11 -9 0 -16 8 -16 18 -1 16 -1 16 -10 0
-12 -19 -50 -13 -50 8 0 8 -8 18 -17 21 -10 4 -21 11 -25 17 -5 7 -8 6 -8 -3
0 -7 -6 -11 -14 -8 -10 4 -13 -1 -10 -16 4 -22 4 -22 -5 1 -10 22 -41 31 -41
11 0 -5 -4 -8 -9 -5 -18 12 -41 -7 -41 -32 l0 -26 -16 22 c-15 22 -39 21 -31
-2 3 -7 -1 -23 -9 -37 -7 -13 -14 -19 -14 -14 -2 34 -50 43 -50 9 0 -17 -17
-18 -23 -1 -3 7 -6 5 -6 -5 -1 -10 -7 -18 -15 -18 -8 0 -13 8 -12 17 4 24 -21
46 -44 40 -11 -3 -20 -1 -20 5 0 6 -11 8 -25 4 -20 -5 -23 -3 -18 10 5 15 2
16 -24 11 -26 -5 -32 -3 -36 14 -3 12 -4 19 -1 16 8 -7 64 46 64 61 0 9 6 12
16 8 10 -4 14 -1 12 6 -3 7 -13 15 -24 16 -10 2 -23 9 -29 16 -5 7 -18 15 -27
19 -10 3 -18 11 -18 17 0 6 5 8 10 5 6 -3 10 -2 10 4 0 5 -4 13 -10 16 -5 3
-10 1 -10 -6 0 -8 -3 -9 -9 -3 -13 15 -21 73 -11 79 6 4 8 9 6 13 -2 4 18 8
44 8 35 1 47 -2 44 -11 -3 -7 2 -20 11 -29 9 -9 14 -20 10 -26 -3 -6 1 -7 9
-4 9 3 16 11 16 17 0 5 9 2 19 -7 19 -17 22 -17 63 6 24 12 44 26 46 29 1 3
16 3 32 1 33 -5 35 -1 20 29 -8 15 -7 19 3 19 8 0 20 7 27 15 15 19 16 19 79
-2z m771 -475 c80 -32 111 -53 115 -78 9 -46 31 -90 46 -90 10 0 22 -6 26 -14
8 -14 60 -46 76 -46 4 0 7 7 7 15 0 8 4 15 9 15 5 0 14 -7 21 -15 7 -8 18 -15
24 -15 19 0 57 40 50 52 -4 7 -2 8 4 4 7 -4 12 -1 12 8 0 9 -7 16 -15 16 -18
0 -20 26 -2 33 8 4 7 6 -3 6 -9 1 -21 -4 -28 -11 -17 -17 -15 -1 4 31 13 21
22 27 41 23 22 -4 23 -2 17 22 -10 43 23 31 43 -16 15 -34 57 -62 82 -55 12 3
22 -1 25 -9 3 -8 18 -14 34 -14 35 0 45 -9 31 -27 -9 -10 -8 -13 4 -13 9 0 20
7 25 17 10 16 42 12 42 -6 0 -24 -53 -71 -80 -71 -16 0 -30 -7 -34 -16 -4 -12
-17 -15 -49 -12 -23 1 -45 6 -48 11 -3 4 -20 9 -37 12 -25 3 -32 0 -32 -13 0
-14 -2 -14 -9 -3 -5 8 -16 11 -24 8 -8 -3 -19 -1 -25 5 -6 6 -12 6 -16 -1 -4
-6 -2 -11 4 -11 6 0 8 -5 5 -11 -8 -12 44 -59 59 -53 7 3 21 -4 33 -15 12 -11
33 -23 47 -27 15 -3 29 -10 31 -15 3 -4 12 -6 20 -3 9 4 16 -3 21 -20 3 -14
14 -26 23 -27 10 0 11 -2 4 -6 -7 -2 -14 -14 -14 -26 -1 -17 -2 -18 -6 -4 -6
23 -23 12 -24 -16 0 -12 -3 -16 -6 -9 -3 7 -23 12 -51 11 -36 0 -42 -3 -27 -9
19 -8 19 -9 -2 -9 -12 -1 -25 4 -28 9 -3 6 -11 10 -16 10 -6 0 -7 -4 -4 -10 3
-5 1 -10 -5 -10 -7 0 -8 -6 0 -19 16 -31 13 -84 -4 -78 -8 3 -16 1 -19 -6 -2
-7 -21 -11 -47 -10 -24 1 -50 -3 -57 -8 -6 -6 -16 -8 -21 -5 -6 3 -12 -7 -15
-22 -3 -15 0 -30 6 -34 8 -5 6 -8 -5 -8 -9 0 -19 6 -22 13 -5 9 -7 9 -12 -1
-5 -10 -9 -10 -21 -1 -12 10 -16 10 -23 -1 -5 -8 -12 -11 -17 -6 -4 4 0 12 10
17 21 12 23 39 2 39 -7 0 -19 -8 -24 -17 -9 -16 -11 -15 -11 7 -1 14 -4 20 -6
14 -3 -7 -21 4 -42 25 -20 20 -50 41 -66 46 -16 6 -31 17 -34 25 -4 12 -2 13
9 3 7 -7 17 -13 21 -13 4 0 7 6 6 13 -2 6 5 11 15 9 12 -2 17 4 17 22 0 37
-11 61 -21 45 -6 -10 -11 -10 -23 0 -20 17 -21 40 -1 47 8 4 13 9 11 13 -3 4
11 8 30 8 23 1 34 -4 34 -13 0 -17 12 -18 29 -1 13 13 16 14 57 16 15 0 24 6
22 13 -7 19 -24 20 -41 3 -11 -10 -18 -12 -22 -4 -4 6 -18 8 -32 4 -21 -5 -24
-3 -18 15 5 15 0 26 -19 41 -14 11 -26 26 -26 33 0 41 -82 58 -85 18 -2 -27
-15 -42 -15 -18 0 9 -4 15 -9 12 -28 -18 -82 -16 -125 5 -25 11 -46 25 -46 30
0 13 18 11 22 -3 3 -9 6 -9 12 0 5 8 -3 16 -23 23 -23 8 -31 17 -31 34 0 13
-7 26 -16 29 -21 8 -33 -2 -16 -13 10 -6 9 -14 -4 -39 -20 -41 -39 -42 -31 -2
4 16 2 32 -3 35 -6 3 -10 1 -10 -5 0 -19 -28 -40 -44 -34 -9 3 -13 11 -10 16
4 6 -3 5 -15 -1 -12 -7 -27 -8 -34 -4 -13 8 -19 10 -43 12 -11 1 -15 7 -11 21
4 16 0 19 -21 18 -15 -1 -30 -7 -34 -12 -4 -6 -11 -7 -15 -2 -4 4 0 13 10 20
9 7 17 18 17 25 0 6 5 11 10 11 6 0 10 5 10 11 0 6 -6 9 -14 6 -8 -3 -16 2
-19 15 -4 15 -9 18 -23 10 -19 -11 -54 17 -54 43 0 19 4 19 69 -1 40 -11 50
-18 42 -28 -7 -9 -5 -17 9 -28 21 -19 36 -12 19 9 -15 18 1 17 48 -2 40 -17
108 -20 98 -5 -3 6 1 10 9 10 9 0 16 -7 16 -15 0 -18 41 -20 57 -4 9 9 20 9
43 0 18 -6 36 -8 41 -5 5 3 9 0 9 -5 0 -15 27 -14 33 2 2 6 -2 21 -10 33 -11
18 -11 23 7 39 10 9 26 15 34 12 9 -4 18 -2 22 4 3 5 14 7 25 4 10 -4 19 -2
19 4 0 10 13 8 60 -11z"/>
<path d="M4186 10083 c-3 -4 -6 -14 -6 -24 0 -12 6 -16 20 -12 11 3 20 0 20
-6 0 -6 12 -11 26 -11 22 0 26 -4 22 -24 -3 -16 0 -23 10 -22 8 0 17 -5 20
-13 3 -10 -1 -12 -16 -9 -13 4 -23 0 -26 -8 -3 -8 -1 -14 4 -14 5 0 8 -30 7
-66 -2 -55 1 -68 18 -80 11 -8 28 -21 38 -29 23 -20 27 -19 27 4 0 11 5 23 12
27 7 5 9 2 5 -8 -9 -26 5 -30 17 -5 16 31 80 37 96 8 14 -28 46 -27 55 2 6 19
8 19 12 5 2 -10 8 -18 13 -18 18 0 20 20 5 43 -11 18 -22 23 -40 19 -14 -2
-25 -11 -25 -18 0 -20 -18 -17 -29 5 -7 13 -18 17 -38 14 -22 -4 -25 -2 -13 6
8 6 25 11 38 11 13 0 21 4 18 9 -3 5 -27 8 -53 7 -27 -2 -51 2 -54 7 -4 5 -15
4 -28 -2 -17 -10 -22 -9 -27 4 -4 9 1 22 12 30 11 8 14 14 7 15 -18 0 -16 30
2 30 8 0 15 -5 15 -12 0 -17 13 0 17 21 1 11 -4 22 -12 25 -8 3 -15 1 -15 -4
0 -6 -9 -10 -20 -10 -23 0 -43 32 -34 54 4 9 1 16 -6 16 -7 0 -10 8 -8 18 4
12 -1 18 -13 18 -11 0 -19 -4 -19 -8 0 -4 -11 -3 -24 2 -13 5 -27 6 -30 3z"/>
<path d="M5187 9716 c-8 -9 -27 -16 -41 -16 -15 0 -26 -6 -28 -17 -3 -16 -6
-15 -26 5 -24 24 -38 29 -26 11 5 -9 -1 -10 -20 -5 -15 4 -26 2 -26 -4 0 -15
-14 -12 -37 9 -15 14 -30 18 -53 14 -36 -5 -66 -28 -51 -38 5 -3 12 -1 16 5 4
6 11 8 16 5 5 -4 9 -1 9 5 0 19 18 1 24 -25 7 -26 35 -65 47 -65 4 0 9 9 12
20 3 11 11 20 19 19 10 0 10 -2 1 -6 -15 -5 -7 -47 13 -78 8 -11 14 -34 14
-52 0 -37 14 -50 36 -32 8 6 17 9 21 6 3 -4 19 5 36 19 27 22 35 24 83 18 37
-4 54 -3 54 5 0 6 -3 10 -7 10 -24 -4 -53 2 -53 12 0 6 9 8 23 3 22 -7 22 -6
3 15 -17 19 -18 21 -2 21 10 0 26 -4 36 -10 24 -13 50 -3 43 16 -3 8 0 14 7
14 7 0 9 8 5 20 -4 13 -1 22 9 26 20 8 8 37 -13 30 -13 -5 -13 -4 2 8 23 18
21 24 -8 22 -14 0 -25 -3 -25 -6 0 -3 -15 -6 -33 -7 -23 -2 -37 3 -48 18 -14
19 -17 20 -32 5z"/>
<path d="M6425 9672 c-13 -11 -19 -26 -17 -42 2 -14 1 -22 -4 -18 -17 17 -31
-14 -26 -57 4 -44 4 -45 -23 -45 -22 0 -25 3 -16 14 9 11 4 13 -26 9 -42 -4
-73 -35 -65 -65 2 -10 -1 -24 -7 -31 -6 -8 -8 -17 -4 -20 3 -4 -2 -16 -12 -27
-17 -18 -17 -20 -1 -20 9 0 14 -5 11 -10 -3 -6 -17 -7 -30 -4 -18 4 -25 1 -30
-16 -4 -12 -1 -27 5 -35 10 -12 9 -15 -6 -16 -11 0 -14 -3 -6 -6 7 -3 19 1 28
8 12 10 12 14 2 21 -8 5 -1 6 17 2 17 -4 36 -12 44 -18 12 -9 13 -4 8 29 -4
22 -4 35 -1 29 2 -6 16 -9 31 -6 16 3 24 1 20 -6 -4 -5 0 -12 7 -15 8 -3 16
-1 18 5 3 7 9 8 19 3 22 -15 42 -15 72 -2 17 7 25 17 22 26 -4 11 3 13 35 8
33 -4 40 -2 40 11 0 10 7 26 15 36 8 11 15 30 15 44 0 18 -5 23 -22 20 -15 -2
-23 2 -23 12 0 10 9 14 30 13 35 -3 47 12 39 51 -5 25 -4 28 11 22 15 -6 17
-2 12 29 -4 26 -2 37 11 45 25 14 9 12 -29 -4 -51 -21 -84 -52 -66 -63 11 -7
11 -12 0 -33 l-13 -25 0 29 c0 23 -2 26 -14 17 -12 -10 -13 -9 -9 7 3 12 -3
27 -15 38 -11 11 -22 31 -24 46 -3 25 -4 26 -23 10z"/>
<path d="M8120 9656 c0 -3 10 -14 22 -26 15 -14 22 -33 23 -59 0 -21 6 -46 13
-54 10 -12 7 -19 -18 -40 -16 -14 -30 -28 -30 -32 0 -3 -11 -18 -25 -33 -41
-44 -32 -52 29 -27 32 13 36 20 36 50 0 28 4 35 19 35 30 0 51 11 51 25 0 8
14 21 32 29 38 20 38 20 38 -1 0 -13 6 -11 28 10 23 22 34 26 59 21 40 -8 50
9 24 42 -11 15 -18 30 -16 34 3 5 -5 12 -17 16 -16 5 -27 0 -44 -20 -26 -29
-39 -34 -30 -11 3 8 1 15 -4 15 -6 0 -10 -4 -10 -10 0 -5 -5 -10 -11 -10 -16
0 0 20 25 30 l21 9 -22 0 c-12 1 -24 -3 -27 -8 -3 -5 -21 -11 -40 -13 -21 -2
-32 0 -29 6 4 5 -1 7 -10 3 -9 -3 -17 -2 -19 2 -3 10 -68 26 -68 17z"/>
<path d="M13449 8250 c-3 -20 -11 -26 -39 -31 -19 -4 -28 -7 -19 -8 9 0 20 -8
23 -17 9 -24 -3 -32 -15 -11 -6 9 -15 15 -20 11 -5 -3 -16 0 -24 6 -17 14 -21
35 -5 25 15 -9 12 11 -4 24 -10 8 -16 9 -21 1 -3 -6 -11 -8 -16 -5 -5 4 -9 1
-9 -4 0 -6 8 -11 18 -12 14 0 14 -2 -3 -9 -31 -13 -37 -12 -30 9 3 11 1 22 -5
26 -5 3 -10 0 -10 -9 0 -8 -12 -19 -27 -24 -16 -6 -21 -11 -12 -11 27 -2 39
-21 26 -42 -9 -14 -9 -21 1 -31 18 -18 15 -26 -10 -30 -13 -2 -22 -7 -20 -13
2 -5 11 -8 20 -7 9 2 22 5 27 5 6 1 10 -10 10 -25 -1 -25 3 -28 32 -28 20 0
36 7 43 18 11 16 11 16 6 0 -3 -10 -2 -18 3 -18 5 0 8 -7 7 -16 -1 -12 10 -17
42 -20 50 -5 56 11 10 25 -18 5 -26 10 -18 11 11 1 9 4 -5 10 -18 8 -17 9 6 9
16 1 29 -6 33 -14 5 -14 10 -13 36 6 16 13 30 31 30 41 0 11 4 17 9 14 5 -3 6
-26 3 -51 -3 -32 -1 -45 8 -45 7 0 10 6 7 14 -9 22 11 83 29 90 8 3 24 1 34
-4 26 -14 31 -13 28 6 -2 10 3 19 10 21 7 3 10 -1 6 -11 -3 -9 -1 -16 5 -16 7
0 7 -7 -1 -25 -14 -31 -35 -32 -41 -2 -3 20 -4 20 -11 4 -6 -13 -3 -22 10 -32
26 -20 30 -19 59 12 14 15 25 22 25 15 0 -6 5 -12 10 -12 6 0 10 8 10 19 0 10
9 21 20 24 23 6 27 27 6 27 -18 0 -76 32 -76 43 0 12 18 8 24 -5 3 -7 3 -2 0
12 -5 20 -4 23 7 13 18 -17 44 -16 59 2 10 13 9 15 -9 15 -12 0 -19 -4 -16
-10 3 -5 1 -10 -4 -10 -6 0 -11 5 -11 11 0 7 -11 8 -30 4 -22 -5 -32 -3 -36 9
-3 9 -11 16 -16 16 -6 0 -8 -7 -4 -15 3 -8 1 -15 -4 -15 -6 0 -10 5 -10 10 0
6 -12 10 -26 10 -14 0 -23 -4 -19 -10 3 -5 2 -10 -3 -10 -5 0 -15 11 -22 25
-14 27 -33 35 -24 10 4 -8 1 -15 -5 -15 -6 0 -11 9 -11 20 0 11 -4 20 -10 20
-17 0 -11 -30 11 -58 18 -23 19 -27 5 -30 -21 -5 -20 -10 5 -31 21 -17 21 -17
-15 -13 -35 4 -46 15 -26 27 17 11 11 45 -7 45 -13 0 -15 2 -5 8 9 6 10 16 3
33 l-9 24 -3 -25z"/>
<path d="M13810 8196 c0 -14 -24 -22 -52 -17 -4 0 -6 -5 -3 -12 12 -41 15 -68
5 -62 -11 7 -13 -4 -10 -47 1 -14 -3 -29 -8 -32 -5 -3 -8 -18 -6 -33 1 -16 -4
-32 -13 -38 -10 -8 -14 -19 -10 -30 6 -13 10 -15 21 -6 7 6 21 9 30 5 38 -14
60 52 29 84 -7 7 -13 22 -13 33 0 19 0 19 22 -1 12 -11 24 -17 27 -14 3 4 0 9
-6 11 -18 6 -16 23 2 23 9 0 15 -9 15 -22 1 -19 3 -17 15 11 8 18 15 41 14 50
-1 17 -1 15 -15 -27 -2 -7 -8 -10 -14 -7 -6 4 -4 15 6 30 16 24 11 51 -7 39
-5 -3 -7 -10 -3 -15 3 -5 2 -9 -3 -8 -20 3 -27 -2 -13 -11 8 -5 11 -12 7 -16
-10 -10 -67 -12 -61 -2 3 4 12 8 19 8 8 0 12 6 9 14 -3 8 3 17 14 20 15 5 20
16 20 41 0 19 -4 38 -9 41 -5 3 -9 -2 -9 -10z"/>
<path d="M13064 8013 c3 -7 1 -15 -5 -18 -5 -4 -9 -12 -8 -18 6 -46 -2 -67
-23 -68 l-23 0 23 -10 c13 -5 26 -18 29 -29 3 -11 9 -20 14 -20 5 0 9 -7 9
-15 0 -9 -9 -15 -22 -15 -15 0 -19 -3 -12 -10 15 -15 42 -2 50 23 4 14 1 25
-12 34 -14 10 -15 16 -5 26 10 10 15 8 27 -8 8 -11 12 -29 9 -40 -17 -63 -18
-68 -6 -61 6 4 11 16 11 27 0 10 7 19 15 19 10 0 15 10 15 26 0 15 10 35 22
45 24 21 17 25 -15 7 -20 -10 -21 -10 -9 5 16 19 8 35 -22 47 -25 9 -46 -5
-46 -32 0 -10 -4 -16 -10 -13 -12 8 -13 45 -1 45 5 0 7 9 4 20 -3 12 0 20 7
20 7 0 10 -6 7 -14 -4 -11 1 -14 21 -12 18 2 34 -5 49 -22 12 -13 27 -21 32
-17 16 9 13 25 -4 25 -18 0 -20 20 -2 20 6 0 4 5 -5 11 -12 7 -24 7 -37 0 -14
-8 -22 -7 -31 4 -6 8 -10 18 -7 22 3 4 -6 8 -19 8 -15 0 -22 -5 -20 -12z"/>
<path d="M10758 6825 c-7 -15 -17 -24 -25 -21 -10 4 -12 -5 -8 -39 3 -33 1
-43 -9 -39 -7 3 -26 -1 -42 -7 l-29 -13 25 -4 c28 -4 60 -29 60 -46 0 -6 -7 0
-16 13 -11 16 -23 21 -37 17 -12 -3 -28 0 -36 7 -12 10 -13 9 -2 -11 16 -30
11 -35 -22 -19 -28 13 -38 31 -12 21 9 -4 15 0 15 9 0 8 6 18 13 21 10 5 10 7
0 12 -25 11 -13 19 29 19 22 0 43 5 45 10 2 6 -25 10 -67 11 -63 1 -68 0 -53
-13 10 -8 12 -11 5 -8 -8 4 -22 -2 -33 -14 -20 -22 -25 -36 -9 -26 6 3 10 -4
10 -15 0 -16 -4 -20 -16 -16 -9 3 -20 6 -25 6 -5 0 -9 7 -9 16 0 8 -4 13 -9
10 -13 -8 -1 -46 14 -46 7 0 18 -7 25 -15 10 -13 9 -15 -9 -15 -13 0 -19 -4
-16 -10 4 -6 11 -8 16 -4 16 10 40 -17 34 -37 -7 -21 5 -25 22 -8 6 6 17 8 24
3 8 -5 0 -12 -26 -21 -35 -12 -40 -12 -61 8 -13 12 -24 16 -28 10 -4 -5 -1
-13 6 -17 7 -5 3 -10 -13 -16 -19 -7 -21 -11 -9 -18 8 -5 11 -12 7 -17 -4 -4
-16 -2 -25 5 -35 25 -77 40 -88 31 -6 -5 -13 -6 -17 -3 -3 3 -14 1 -24 -6 -17
-10 -16 -11 3 -5 18 5 20 1 20 -30 -1 -29 -4 -34 -20 -29 -13 4 -17 2 -14 -7
3 -8 12 -13 22 -11 9 2 16 -2 16 -8 0 -5 -6 -10 -14 -10 -8 0 -17 -7 -20 -16
-7 -18 -7 -55 0 -37 3 7 12 9 20 6 8 -3 14 0 14 7 0 6 5 8 10 5 8 -5 7 -12 -2
-23 -11 -13 -11 -15 2 -10 42 17 55 20 41 10 -8 -6 -10 -15 -6 -22 5 -9 4 -11
-3 -6 -8 5 -10 2 -6 -8 4 -10 1 -16 -7 -16 -7 0 -10 -2 -7 -5 3 -3 18 -1 33 5
17 6 31 7 34 2 8 -12 81 -21 81 -10 0 4 5 8 10 8 6 0 10 -10 10 -22 1 -21 2
-21 11 -5 15 25 32 21 23 -5 -6 -20 -5 -21 8 -10 9 7 14 24 12 40 -2 15 -1 19
2 10 3 -10 10 -18 15 -18 5 0 9 8 9 18 0 12 2 14 8 4 5 -7 25 -15 45 -19 30
-4 37 -3 37 11 0 9 7 16 15 16 8 0 15 -4 15 -10 0 -19 21 -10 29 13 10 26 4
38 -9 17 -8 -13 -11 -12 -23 4 -8 11 -19 16 -25 12 -13 -8 -42 3 -42 16 0 5
10 6 22 3 17 -6 20 -4 14 11 -6 15 -2 13 19 -6 21 -20 29 -22 45 -13 15 10 19
9 24 -3 3 -9 1 -24 -4 -35 -10 -17 -7 -19 25 -19 19 0 35 5 35 10 0 6 -7 10
-15 10 -8 0 -15 7 -15 16 0 14 3 14 15 4 13 -11 14 -10 10 3 -4 8 -2 18 4 22
6 3 11 -1 11 -11 0 -13 3 -15 11 -7 6 6 18 9 25 6 8 -3 14 0 14 6 0 6 7 11 15
11 11 0 13 8 9 33 -4 24 -3 28 5 17 6 -8 11 -26 11 -40 l1 -25 11 25 c6 14 11
32 12 40 1 8 9 14 19 14 23 -2 22 13 -2 21 -20 6 -34 53 -25 82 3 10 -1 7 -10
-7 -13 -23 -15 -23 -22 -7 -3 10 -13 16 -20 13 -9 -4 -14 2 -14 15 0 20 -4 21
-55 14 -34 -4 -55 -3 -55 3 0 6 9 8 20 5 11 -3 20 0 20 6 0 6 -12 11 -26 11
-21 0 -24 4 -19 20 9 27 -3 25 -15 -2 -7 -19 -9 -14 -11 27 -1 28 -4 40 -6 28
-2 -13 -8 -23 -13 -23 -14 0 -21 32 -9 46 9 11 8 18 -1 29 -17 20 -7 29 18 16
16 -8 21 -7 26 4 3 9 0 15 -9 15 -16 0 -20 16 -6 24 13 8 21 46 10 46 -5 0
-15 -11 -21 -25z"/>
<path d="M13820 6433 c-8 -16 -15 -29 -16 -31 -1 -2 -11 1 -23 7 -24 13 -42
-6 -20 -20 11 -7 10 -9 -3 -9 -12 0 -15 -5 -11 -16 5 -13 2 -15 -15 -9 -13 4
-22 2 -22 -4 0 -6 5 -11 10 -11 6 0 10 -5 10 -11 0 -6 -6 -9 -14 -6 -8 3 -17
-1 -20 -10 -5 -12 -9 -13 -21 -3 -23 19 -26 9 -9 -39 8 -23 11 -47 8 -53 -4
-6 -2 -8 4 -4 6 3 13 2 17 -4 8 -13 55 -13 55 1 0 5 4 8 10 4 5 -3 7 -12 3
-21 -5 -13 -1 -13 23 -2 16 7 33 19 38 27 7 11 11 10 21 -9 8 -15 15 -19 19
-11 4 6 2 11 -3 11 -6 0 -11 7 -11 15 0 18 37 38 57 31 9 -4 13 -1 11 6 -7 20
-34 21 -52 2 -9 -9 -20 -13 -24 -9 -4 4 -1 10 6 12 6 3 12 9 12 14 0 6 -6 9
-12 8 -27 -3 -38 2 -38 16 0 8 5 15 10 15 6 0 10 -6 10 -13 0 -15 35 -16 50
-1 11 11 -33 67 -45 56 -4 -4 -2 3 6 15 11 18 10 24 -2 39 -8 10 -9 15 -2 11
7 -5 9 0 6 13 -7 25 -7 25 -23 -7z"/>
</g>
</svg>
